<svg xmlns="http://www.w3.org/2000/svg" viewBox="0 0 512 512" xmlns:v="https://vecta.io/nano"><g fill="none" stroke-width="2"><path stroke="#6c220b" vector-effect="non-scaling-stroke" d="M274.81 36.04c-2.74 8.69-12.02 6.64-18.88 6.68"/><path stroke="#802c11" vector-effect="non-scaling-stroke" d="M255.93 42.72q-21.15-.1-42.44.01c-5.8.03-9.79 1.74-10.48 7.77q-6.63 57.8-13.26 115.61-.5 4.39 0 8.78 7.04 61.77 14.1 123.45.04.35.39.35h82"/><path stroke="#6c220b" vector-effect="non-scaling-stroke" d="M286.24 298.69h16.65a.36.35 86.4 0 0 .35-.4q-3.39-29.67-6.73-59.33c-.74-6.53.33-11.15 7.3-12.42"/><path stroke="#7b3e00" vector-effect="non-scaling-stroke" d="M443.72 435.21l16.51-.01q.53 0 .53-.53.05-49.5 0-99-.01-6.41-1.38-9.62c-3.83-9.01-11.96-10.82-21.61-10.29"/><path stroke="#804c01" vector-effect="non-scaling-stroke" d="M437.77 315.76q-167.11-.05-334.27.02c-9.14 0-13.62-10.98-5.58-15.77q2.2-1.31 6.42-1.31 32.24-.01 64.43-.02"/><path stroke="#7b3e00" vector-effect="non-scaling-stroke" d="M168.77 298.68l17.4-.02q.53 0 .47-.51Q171 161.19 155.33 24.24c-1.02-8.94-12.78-7.3-18.86-7.17"/><path stroke="#804c01" vector-effect="non-scaling-stroke" d="M136.47 17.07q-20.13-.08-40.77-.03c-6.77.02-11.49 1.11-12.32 8.45Q67.87 161.78 52.29 298.06q-1.02 8.95-1.04 17.93-.09 59.34-.01 118.71 0 .52.52.52h24.73a.28.28 0 0 0 .28-.28q.01-36.29 0-72.66c0-8.89 1.94-16.07 10.3-19.47q3.83-1.56 14.07-1.51 17.68.07 35.36.16 7.31.04 12.14 4.9c5.11 5.14 4.95 10.12 4.94 18.16q-.02 35 .02 70.17 0 .52.51.52h289.61"/><path vector-effect="non-scaling-stroke" d="M136.47 17.07q1.48 4.22 2.28 11.18 15.33 134.07 30.67 268.14c.11 1.04-.16 1.45-.65 2.29m269 17.08c1.99 4.15 4.53 6.74 5.47 12.02q.49 2.71.49 6.49.04 50.41-.01 100.94" stroke="#fa8a01"/><path stroke="#502917" vector-effect="non-scaling-stroke" d="M136.51 358.76a.34.34 0 0 0-.34-.34H94.21a.34.34 0 0 0-.34.34v76.12a.34.34 0 0 0 .34.34h41.96a.34.34 0 0 0 .34-.34v-76.12"/><path stroke="#383838" vector-effect="non-scaling-stroke" d="M475.79 494.94c5.79.04 15 1.65 18.12-4.62q1.04-2.09 1.05-7.8.01-10.51.01-21.02c-.01-11.27-11.87-9.29-19.29-9.23"/><path stroke="#4f4f4f" vector-effect="non-scaling-stroke" d="M475.68 452.27q-222.9-.05-445.87.01c-7.48 0-12.87 1.19-12.82 9.73q.05 9.83.05 19.66c0 7.39.85 13.26 9.46 13.26q224.64.04 449.29.01"/><path stroke="#878787" vector-effect="non-scaling-stroke" d="M475.68 452.27q2.14 4.27 2.14 9.23.01 13-.01 26-.01 3.21-2.02 7.44"/><path stroke="#6c220b" vector-effect="non-scaling-stroke" d="M300.25 195.4q-4.15-5.33-6.15-8.25c-24.59-35.96-27.78-81.86-8.55-120.91"/><path stroke="#004248" vector-effect="non-scaling-stroke" d="M417.24 218.67q35.34-8.97 56.49-36.9c44.5-58.75 15.59-141.55-54.73-161.31q-.7-.2-1.45-.16"/><path stroke="#005e6a" vector-effect="non-scaling-stroke" d="M417.55 20.3q-7.38-2.07-15.05-2.77c-63.03-5.76-116.64 45.72-112.11 109.05 3.63 50.79 43.4 90.47 93.6 94.92q17.06 1.51 33.25-2.83"/><path stroke="#00a0b2" vector-effect="non-scaling-stroke" d="M417.55 20.3q.12.48.44.65c49.76 26.64 72.81 84.88 52.65 137.91q-14.73 38.75-53.4 59.81"/><path vector-effect="non-scaling-stroke" d="M247.52 358.48a17.1 17.1 0 0 0-17.07-17.13l-34.08-.06a17.1 17.1 0 0 0-17.13 17.07l-.06 34.06a17.1 17.1 0 0 0 17.07 17.13l34.08.059a17.1 17.1 0 0 0 17.13-17.07l.06-34.06m42.64-17.169a17.12 17.12 0 0 0-17.12 17.13l.01 34.03a17.12 17.12 0 0 0 17.12 17.11h34.03a17.12 17.12 0 0 0 17.11-17.12v-34.03a17.12 17.12 0 0 0-17.13-17.12h-34.02m145.08 17.17a17.11 17.11 0 0 0-17.08-17.14l-34.04-.06a17.11 17.11 0 0 0-17.14 17.08l-.06 34.06A17.11 17.11 0 0 0 384 409.56l34.04.06a17.11 17.11 0 0 0 17.14-17.08l.06-34.06" stroke="#804c01"/><path stroke="#005e6a" vector-effect="non-scaling-stroke" d="M418.56 110.95a.38.37-87.3 0 1-.38-.42q2.67-25.07 5.35-50.15.59-5.56.19-7.75c-1.35-7.27-10.19-12.01-16.63-9.22q-2.89 1.25-8.73 7.34-25.87 26.97-51.78 53.9-3.4 3.54-4.36 5.79c-2.81 6.58.96 14.78 7.64 16.86 4.29 1.34 11.51.66 16.79.72a.26.26 0 0 1 .25.29q-2.74 25.42-5.42 50.71-.58 5.5.03 7.95c1.7 6.83 10.08 11.2 16.36 8.6q2.87-1.18 8.29-6.82 26.69-27.73 53.49-55.37c6.11-6.3 5.27-17.08-2.63-20.99-4.76-2.36-12.88-1.44-18.46-1.44"/><path stroke="#ec4d1c" vector-effect="non-scaling-stroke" d="M286.24 298.69q-6.78-59.33-13.54-118.52-.28-2.45-1.54-4.67c-15.72-27.68-19.31-58.57-10.14-88.9q.73-2.42.47-4.81-1.8-16.61-3.83-33.2c-.25-2.04-1.16-3.84-1.73-5.87"/><path stroke="#806e00" vector-effect="non-scaling-stroke" d="M420.08 128.05c-7.58-.22-21.11 2.48-19.74-10.55q2.57-24.59 5.14-48.75.09-.83-.48-.23l-40.43 42.04a.23.23 0 0 0 .16.39q4.95.02 9.98.02c8.56.01 10.72 4.47 9.85 12.6q-2.51 23.43-5 46.74-.08.75.44.2l40.3-41.92q.5-.52-.22-.54"/><path vector-effect="non-scaling-stroke" d="M230.42 358.71a.28.28 0 0 0-.28-.28h-33.6a.28.28 0 0 0-.28.28v33.52a.28.28 0 0 0 .28.28h33.6a.28.28 0 0 0 .28-.28v-33.52m93.83.08a.36.36 0 0 0-.36-.36h-33.38a.36.36 0 0 0-.36.36v33.36a.36.36 0 0 0 .36.36h33.38a.36.36 0 0 0 .36-.36v-33.36m93.9.09a.45.45 0 0 0-.45-.45h-33.24a.45.45 0 0 0-.45.45v33.18a.45.45 0 0 0 .45.45h33.24a.45.45 0 0 0 .45-.45v-33.18" stroke="#2a2e30"/></g><path d="M89.61 0h59.88q14.93 2.54 20.49 14.62 2.01 4.36 3.21 15.07 3.6 31.9 7.08 62.3.39 3.45.79 0 2.57-22.37 5.07-43.73c1.23-10.47 8.51-19.13 18.63-21.79q3.38-.89 12.61-.88 22.03.01 44.07-.02 6.66-.01 8.97 1.09 4.91 2.36 4.4 9.38c-2.74 8.69-12.02 6.64-18.88 6.68q-21.15-.1-42.44.01c-5.8.03-9.79 1.74-10.48 7.77q-6.63 57.8-13.26 115.61-.5 4.39 0 8.78 7.04 61.77 14.1 123.45.04.35.39.35h82 16.65a.36.35 86.4 0 0 .35-.4q-3.39-29.67-6.73-59.33c-.74-6.53.33-11.15 7.3-12.42 7.13-.05 8.91 4.24 9.65 10.77q3.46 30.43 6.96 61.01a.41.41 0 0 0 .41.37q59.47 0 119.13.01 8.36 0 12.49 1.09c11.29 2.96 20.74 12.04 23.94 23.09q1.48 5.1 1.47 19.87-.01 46.07 0 92.08a.39.39 0 0 0 .39.39c4.7.01 9.97-.4 14.28.78Q509 440.5 512 458.37v30.26q-3.27 20.13-23.36 23.37H23.22Q3.28 508.64 0 488.74v-30.35c1.7-13.12 12.41-23.34 25.5-23.2q5.32.06 8.07.03.56-.01.56-.57.02-61.58.1-123.15c0-2.56-.06-5.11.23-7.67Q50.04 167.42 65.6 31q1.38-12.17 3.48-16.66Q74.63 2.47 89.61 0zm354.11 435.21l16.51-.01q.53 0 .53-.53.05-49.5 0-99-.01-6.41-1.38-9.62c-3.83-9.01-11.96-10.82-21.61-10.29q-167.11-.05-334.27.02c-9.14 0-13.62-10.98-5.58-15.77q2.2-1.31 6.42-1.31 32.24-.01 64.43-.02l17.4-.02q.53 0 .47-.51Q171 161.19 155.33 24.24c-1.02-8.94-12.78-7.3-18.86-7.17q-20.13-.08-40.77-.03c-6.77.02-11.49 1.11-12.32 8.45Q67.87 161.78 52.29 298.06q-1.02 8.95-1.04 17.93-.09 59.34-.01 118.71 0 .52.52.52h24.73a.28.28 0 0 0 .28-.28q.01-36.29 0-72.66c0-8.89 1.94-16.07 10.3-19.47q3.83-1.56 14.07-1.51 17.68.07 35.36.16 7.31.04 12.14 4.9c5.11 5.14 4.95 10.12 4.94 18.16q-.02 35 .02 70.17 0 .52.51.52h289.61zm-307.21-76.45a.34.34 0 0 0-.34-.34H94.21a.34.34 0 0 0-.34.34v76.12a.34.34 0 0 0 .34.34h41.96a.34.34 0 0 0 .34-.34v-76.12zm339.28 136.18c5.79.04 15 1.65 18.12-4.62q1.04-2.09 1.05-7.8.01-10.51.01-21.02c-.01-11.27-11.87-9.29-19.29-9.23q-222.9-.05-445.87.01c-7.48 0-12.87 1.19-12.82 9.73q.05 9.83.05 19.66c0 7.39.85 13.26 9.46 13.26q224.64.04 449.29.01zM387.83 0h9.47C460.59 3.45 508.53 51.9 512 115.1v9.16q-2.46 44.9-31.59 76.15c-46.72 50.11-124.75 51.54-173.09 2.77q-2.74-2.76-7.07-7.78-4.15-5.33-6.15-8.25c-24.59-35.96-27.78-81.86-8.55-120.91C305.43 26.65 343.7 2.51 387.83 0zm29.41 218.67q35.34-8.97 56.49-36.9c44.5-58.75 15.59-141.55-54.73-161.31q-.7-.2-1.45-.16-7.38-2.07-15.05-2.77c-63.03-5.76-116.64 45.72-112.11 109.05 3.63 50.79 43.4 90.47 93.6 94.92q17.06 1.51 33.25-2.83z"/><path fill="#ff9801" d="M136.47 17.07q1.48 4.22 2.28 11.18 15.33 134.07 30.67 268.14c.11 1.04-.16 1.45-.65 2.29q-32.19.01-64.43.02-4.22 0-6.42 1.31c-8.04 4.79-3.56 15.77 5.58 15.77q167.16-.07 334.27-.02c1.99 4.15 4.53 6.74 5.47 12.02q.49 2.71.49 6.49.04 50.41-.01 100.94H154.11q-.51 0-.51-.52-.04-35.17-.02-70.17c.01-8.04.17-13.02-4.94-18.16q-4.83-4.86-12.14-4.9-17.68-.09-35.36-.16-10.24-.05-14.07 1.51c-8.36 3.4-10.3 10.58-10.3 19.47q.01 36.37 0 72.66a.28.28 0 0 1-.28.28H51.76q-.52 0-.52-.52-.08-59.37.01-118.71.02-8.98 1.04-17.93Q67.87 161.78 83.38 25.49c.83-7.34 5.55-8.43 12.32-8.45q20.64-.05 40.77.03zm111.05 341.41a17.1 17.1 0 0 0-17.07-17.13l-34.08-.06a17.1 17.1 0 0 0-17.13 17.07l-.06 34.06a17.1 17.1 0 0 0 17.07 17.13l34.08.059a17.1 17.1 0 0 0 17.13-17.07l.06-34.06zm42.64-17.17a17.12 17.12 0 0 0-17.12 17.13l.01 34.03a17.12 17.12 0 0 0 17.12 17.11h34.03a17.12 17.12 0 0 0 17.11-17.12v-34.03a17.12 17.12 0 0 0-17.13-17.12h-34.02zm145.08 17.17a17.11 17.11 0 0 0-17.08-17.14l-34.04-.06a17.11 17.11 0 0 0-17.14 17.08l-.06 34.06A17.11 17.11 0 0 0 384 409.56l34.04.06a17.11 17.11 0 0 0 17.14-17.08l.06-34.06z"/><path fill="#f57c00" d="M136.47 17.07c6.08-.13 17.84-1.77 18.86 7.17Q171 161.19 186.64 298.15q.06.51-.47.51l-17.4.02c.49-.84.76-1.25.65-2.29q-15.34-134.07-30.67-268.14-.8-6.96-2.28-11.18z"/><path fill="#00bcd4" d="M417.55 20.3q.12.48.44.65c49.76 26.64 72.81 84.88 52.65 137.91q-14.73 38.75-53.4 59.81-16.19 4.34-33.25 2.83c-50.2-4.45-89.97-44.13-93.6-94.92-4.53-63.33 49.08-114.81 112.11-109.05q7.67.7 15.05 2.77zm1.01 90.65a.38.37-87.3 0 1-.38-.42q2.67-25.07 5.35-50.15.59-5.56.19-7.75c-1.35-7.27-10.19-12.01-16.63-9.22q-2.89 1.25-8.73 7.34-25.87 26.97-51.78 53.9-3.4 3.54-4.36 5.79c-2.81 6.58.96 14.78 7.64 16.86 4.29 1.34 11.51.66 16.79.72a.26.26 0 0 1 .25.29q-2.74 25.42-5.42 50.71-.58 5.5.03 7.95c1.7 6.83 10.08 11.2 16.36 8.6q2.87-1.18 8.29-6.82 26.69-27.73 53.49-55.37c6.11-6.3 5.27-17.08-2.63-20.99-4.76-2.36-12.88-1.44-18.46-1.44z"/><path fill="#00838f" d="M417.55 20.3q.75-.04 1.45.16c70.32 19.76 99.23 102.56 54.73 161.31q-21.15 27.93-56.49 36.9 38.67-21.06 53.4-59.81c20.16-53.03-2.89-111.27-52.65-137.91q-.32-.17-.44-.65z"/><path fill="#d84315" d="M274.81 36.04q8.08 5.04 8.83 13.3.77 8.41 1.91 16.9c-19.23 39.05-16.04 84.95 8.55 120.91q2 2.92 6.15 8.25l3.56 31.14c-6.97 1.27-8.04 5.89-7.3 12.42q3.34 29.66 6.73 59.33a.36.35 86.4 0 1-.35.4h-16.65q-6.78-59.33-13.54-118.52-.28-2.45-1.54-4.67c-15.72-27.68-19.31-58.57-10.14-88.9q.73-2.42.47-4.81-1.8-16.61-3.83-33.2c-.25-2.04-1.16-3.84-1.73-5.87 6.86-.04 16.14 2.01 18.88-6.68z"/><path fill="#ff5722" d="M255.93 42.72c.57 2.03 1.48 3.83 1.73 5.87q2.03 16.59 3.83 33.2.26 2.39-.47 4.81c-9.17 30.33-5.58 61.22 10.14 88.9q1.26 2.22 1.54 4.67 6.76 59.19 13.54 118.52h-82q-.35 0-.39-.35-7.06-61.68-14.1-123.45-.5-4.39 0-8.78 6.63-57.81 13.26-115.61c.69-6.03 4.68-7.74 10.48-7.77q21.29-.11 42.44-.01z"/><path d="M418.56 110.95c5.58 0 13.7-.92 18.46 1.44 7.9 3.91 8.74 14.69 2.63 20.99q-26.8 27.64-53.49 55.37-5.42 5.64-8.29 6.82c-6.28 2.6-14.66-1.77-16.36-8.6q-.61-2.45-.03-7.95 2.68-25.29 5.42-50.71a.26.26 0 0 0-.25-.29c-5.28-.06-12.5.62-16.79-.72-6.68-2.08-10.45-10.28-7.64-16.86q.96-2.25 4.36-5.79 25.91-26.93 51.78-53.9 5.84-6.09 8.73-7.34c6.44-2.79 15.28 1.95 16.63 9.22q.4 2.19-.19 7.75-2.68 25.08-5.35 50.15a.38.37-87.3 0 0 .38.42zm1.52 17.1c-7.58-.22-21.11 2.48-19.74-10.55q2.57-24.59 5.14-48.75.09-.83-.48-.23l-40.43 42.04a.23.23 0 0 0 .16.39q4.95.02 9.98.02c8.56.01 10.72 4.47 9.85 12.6q-2.51 23.43-5 46.74-.08.75.44.2l40.3-41.92q.5-.52-.22-.54z"/><path fill="#ffdc00" d="M400.34 117.5c-1.37 13.03 12.16 10.33 19.74 10.55q.72.02.22.54L380 170.51q-.52.55-.44-.2 2.49-23.31 5-46.74c.87-8.13-1.29-12.59-9.85-12.6q-5.03 0-9.98-.02a.23.23 0 0 1-.16-.39L405 68.52q.57-.6.48.23-2.57 24.16-5.14 48.75z"/><path fill="#f57c00" d="M437.77 315.76c9.65-.53 17.78 1.28 21.61 10.29q1.37 3.21 1.38 9.62.05 49.5 0 99 0 .53-.53.53l-16.51.01q.05-50.53.01-100.94 0-3.78-.49-6.49c-.94-5.28-3.48-7.87-5.47-12.02z"/><path d="M247.46 392.54a17.1 17.1 0 0 1-17.13 17.07l-34.08-.059a17.1 17.1 0 0 1-17.07-17.13l.06-34.06a17.1 17.1 0 0 1 17.13-17.07l34.08.06a17.1 17.1 0 0 1 17.07 17.13l-.06 34.06zm-17.04-33.83a.28.28 0 0 0-.28-.28h-33.6a.28.28 0 0 0-.28.28v33.52a.28.28 0 0 0 .28.28h33.6a.28.28 0 0 0 .28-.28v-33.52zm59.74-17.4h34.02a17.12 17.12 0 0 1 17.13 17.12v34.03a17.12 17.12 0 0 1-17.11 17.12h-34.03a17.12 17.12 0 0 1-17.12-17.11l-.01-34.03a17.12 17.12 0 0 1 17.12-17.13zm34.09 17.48a.36.36 0 0 0-.36-.36h-33.38a.36.36 0 0 0-.36.36v33.36a.36.36 0 0 0 .36.36h33.38a.36.36 0 0 0 .36-.36v-33.36zm110.93 33.75a17.11 17.11 0 0 1-17.14 17.08l-34.04-.06a17.11 17.11 0 0 1-17.08-17.14l.06-34.06a17.11 17.11 0 0 1 17.14-17.08l34.04.06a17.11 17.11 0 0 1 17.08 17.14l-.06 34.06zm-17.03-33.659a.45.45 0 0 0-.45-.45h-33.24a.45.45 0 0 0-.45.45v33.18a.45.45 0 0 0 .45.45h33.24a.45.45 0 0 0 .45-.45v-33.18z"/><rect fill="sienna" x="93.87" y="358.42" width="42.64" height="76.8" rx=".34"/><g fill="#545c60"><rect x="290.15" y="358.43" width="34.1" height="34.08" rx=".36"/><rect x="384.01" y="358.43" width="34.14" height="34.08" rx=".45"/><rect x="196.26" y="358.43" width="34.16" height="34.08" rx=".28"/></g><path fill="#9e9e9e" d="M475.68 452.27q2.14 4.27 2.14 9.23.01 13-.01 26-.01 3.21-2.02 7.44-224.65.03-449.29-.01c-8.61 0-9.46-5.87-9.46-13.26q0-9.83-.05-19.66c-.05-8.54 5.34-9.73 12.82-9.73q222.97-.06 445.87-.01z"/><path fill="#707070" d="M475.68 452.27c7.42-.06 19.28-2.04 19.29 9.23q0 10.51-.01 21.02-.01 5.71-1.05 7.8c-3.12 6.27-12.33 4.66-18.12 4.62q2.01-4.23 2.02-7.44.02-13 .01-26 0-4.96-2.14-9.23z"/></svg>