<svg xmlns="http://www.w3.org/2000/svg" viewBox="0 0 512 512" xmlns:v="https://vecta.io/nano"><style><![CDATA[.B{stroke:#7d7740}.C{fill:#f9ee80}.D{stroke:#807c73}.E{fill:#f9d171}.F{stroke:#80755c}.G{stroke:#3c454e}.H{stroke:#7d6939}.I{stroke:#435272}.J{fill:#ffeab7}]]></style><g fill="none" stroke-width="2"><path vector-effect="non-scaling-stroke" d="M166.94 22.39a7.38 7.38 0 0 0-7.38-7.38H57.44a7.38 7.38 0 0 0-7.38 7.38v.22a7.38 7.38 0 0 0 7.38 7.38h102.12a7.38 7.38 0 0 0 7.38-7.38v-.22" class="B"/><path stroke="#4e7176" vector-effect="non-scaling-stroke" d="M264.07 154.82q-1.2 7.11-8.32 7.12-45.75.06-91.5.07c-6.74 0-9.14 10.11-3.36 13.68q2.1 1.31 6.49 1.31 88.43 0 176.86 0c4.27 0 8.17-.49 9.67-4.58 1.92-5.26-1.52-10.39-7.16-10.39q-26.35-.01-52.71-.04c-5.64-.01-9.25-1.29-10.1-7.17"/><path vector-effect="non-scaling-stroke" d="M283.94 154.82c.36-6.58 4.55-7.83 10.56-7.82q13.84.01 27.44-.01a1.43 1.42 16.3 0 0 1.2-.65q8.25-12.57 4.44-27.07c-.99-3.78-3.3-7.19-3.75-10.97q-1.23-10.43 7.04-16.74c1.98-1.5 4.92-2.43 6.88-3.74q9.35-6.25 8.7-16.9-.41-6.74-.39-6.88c.88-6.79 7.16-12.32 13.93-12.07q10.91.41 17.08-6.62c8.36-9.52 4.56-24.75-7.09-29.06q-3.52-1.3-13.11-1.3-27.31.01-54.62.02-6.26 0-8.93.75c-8.63 2.43-14.45 10.71-13.53 19.63q.51 4.98.34 6.25-1.14 8.59-9.14 11.48c-7.23 2.61-15.91-.54-23.11 2.11q-7.97 2.94-11.28 11.11-.54 1.35-1.22 5.94c-1.28 8.61-6.03 11.82-13.76 15.08-22.77 9.62-30.95 39.62-14.04 58.96a1.98 1.95 69.2 0 0 1.48.68q21.95.02 43.82-.01c6.27-.01 10.69.88 11.19 7.83" class="D"/><path stroke="#cdede9" vector-effect="non-scaling-stroke" d="M283.94 154.82h-19.87"/><path vector-effect="non-scaling-stroke" d="M453.09 76.89a12.46 12.46 0 0 0-24.92 0 12.46 12.46 0 0 0 24.92 0" class="D"/><path vector-effect="non-scaling-stroke" d="M432.08 103.03c-10.76-3.79-18.04-12.9-18.87-24.33q-.03-.44-.48-.44l-51.18-.01q-.4 0-.49.39-4.34 17.78-21.11 24.83a2.29 2.28 67.3 0 0-1.22 2.98l2.49 5.95q.23.55.84.55h91q.57 0 .51-.56l-.93-8.65q-.06-.53-.56-.71" class="F"/><path stroke="#805520" vector-effect="non-scaling-stroke" d="M353.69 148.13q10.56 3.56 14.54 13.94.2.51.75.51h69.56q.61 0 .54-.6l-3.71-33.48q-.07-.55-.62-.55h-90.29q-.68 0-.69.68-.11 9.2-3.67 17.65-.23.56.37.61c4.63.37 8.67-.29 13.22 1.24"/><path vector-effect="non-scaling-stroke" d="M356.37 189.76q-.99.46-1.96 1.09-.36.23-.35.66l.49 20.3q.01.5.51.5h88.97q.65 0 .58-.64l-3.71-33.46q-.07-.62-.69-.62l-71.7-.01a.66.65-78.4 0 0-.6.4q-3.55 8.05-11.54 11.78" class="F"/><path stroke="#4e7176" vector-effect="non-scaling-stroke" d="M202.62 474.54c-.57 6.36-4.71 7.46-10.56 7.46q-47.9.01-95.81 0c-7.68-.01-10.77 10.11-4.1 13.85q2.06 1.15 6.4 1.15 158.48 0 316.95.04c10.43 0 10.59-15.01.25-15.01q-91.42-.02-182.84-.03c-5.85 0-9.74-1.24-10.37-7.5"/><path vector-effect="non-scaling-stroke" d="M222.54 474.5c.68-6.48 4.67-7.5 10.67-7.5q82.27 0 164.44 0a.4.4 0 0 0 .37-.54l-13.26-34.98" class="G"/><path stroke="#434c53" vector-effect="non-scaling-stroke" d="M384.76 431.48q-15.59-42.84-25.51-81.23-17.77-68.75-19.74-141.5-.21-8.05-.44-16.2-.01-.54-.56-.54L235.02 192"/><path vector-effect="non-scaling-stroke" d="M235.02 192l-61.55.02q-.54 0-.55.54-.4 19.99-1.22 34.94-3.91 70.71-23.64 139.45-14.51 50.51-34.09 99.28-.31.77.52.77 38.89 0 78.17 0c5.73 0 9.44 1.48 9.96 7.54" class="G"/><path stroke="#7f90a1" vector-effect="non-scaling-stroke" d="M235.02 192q3.01 34.3 12 66.49 4.65 16.68 12.04 34.47"/><path vector-effect="non-scaling-stroke" d="M259.06 292.96l-2.04 2.31a1.38 1.38 0 0 1-2.08-.01q-13.16-15.22-26.39-30.46c-7.34-8.47-13.89-8.25-22.44-.99q-20.3 17.26-26.1 43.94c-1.6 7.36-1.85 13.61 3.9 17.89q2.38 1.78 8.6 2.99 19.47 3.79 38.79 7.47a1.44 1.44 0 0 1 1.1 1.88q-6.82 19.81-13.83 39.81c-3.46 9.87 2.48 15.16 11.33 18.27q26.19 9.18 52.56-.1c6.16-2.17 11.05-5.03 11.72-11.63q.34-3.41-2.42-11.3-6.15-17.56-12.21-35.15-.16-.48.11-.91.65-1.03 1.68-.96" class="G"/><path stroke="#7f90a1" vector-effect="non-scaling-stroke" d="M281.34 336.01q18.28 28.66 42.72 51.66 27.05 25.47 60.7 43.81"/><path stroke="#89b5c4" vector-effect="non-scaling-stroke" d="M222.54 474.5l-19.92.04"/><path stroke="#434c53" vector-effect="non-scaling-stroke" d="M281.34 336.01q19.42-3.76 38.13-7.31c10.96-2.08 14.98-7.15 12.89-18.77q-5.14-28.52-27.72-47.36c-4.42-3.69-10.14-5.54-15.3-2.99q-2.39 1.18-6.13 5.49-11.69 13.5-24.15 27.89"/><path vector-effect="non-scaling-stroke" d="M394.81 269.23c-.68 8.44-7.14 7.74-13.36 7.79" class="B"/><path vector-effect="non-scaling-stroke" d="M381.45 277.02h-21.12a.28.27 85.5 0 0-.27.32l2.02 14.17a.56.56 0 0 0 .55.48h19.48" class="H"/><path vector-effect="non-scaling-stroke" d="M382.11 291.99q53.24.03 106.64.15c10.57.02 11.37-15.1-.25-15.11q-31.62-.03-63.25-.03c-6.01 0-10.1-1.27-10.56-7.78" class="B"/><path stroke="#805520" vector-effect="non-scaling-stroke" d="M414.69 269.22q1.05-7.25 7.81-7.23 13.51.04 26.96-.01a.66.66 0 0 0 .66-.73l-3.71-33.29q-.07-.65-.71-.65l-90.03.01a.49.49 0 0 0-.49.53l2.76 33.58q.04.53.58.53 12.94.11 25.85.04c5.78-.04 9.6 1.15 10.44 7.23"/><path stroke="#fccc60" vector-effect="non-scaling-stroke" d="M414.69 269.22l-19.88.01"/><path stroke="#f9e079" vector-effect="non-scaling-stroke" d="M382.11 291.99l-.66-14.97"/><path stroke="#4d5975" vector-effect="non-scaling-stroke" d="M125.39 390.8l8.52-28.19q.18-.58-.42-.58H99.63"/><path vector-effect="non-scaling-stroke" d="M99.63 362.03q-20.79-.06-41.88-.08c-9.78 0-17.49-7.36-17.62-17.2q-.17-12.85-.15-25.71.02-7.74 1.51-11.39 2.77-6.81 9.68-9.39c6.1-2.28 16.29-1.21 23.66-1.28" class="I"/><path stroke="#4d5975" vector-effect="non-scaling-stroke" d="M74.83 296.98h73.69q.53 0 .61-.52l3.55-23.93a.45.45 0 0 0-.45-.52H72.56"/><path vector-effect="non-scaling-stroke" d="M72.56 272.01q-17.09-.03-34.56-.06c-13.39-.03-23.23 10.56-23.2 23.8q.19 87.72.21 175.43 0 6.26.74 9.08c1.84 7.02 7.29 12.96 14.08 15.38q3.62 1.29 11.68 1.34 16.31.09 32.7-.01.58-.01.41-.57c-4.64-15.54 6.42-29.39 22.39-29.4q.52 0 .72-.48 15.32-38.01 27.66-75.72" class="I"/><path vector-effect="non-scaling-stroke" d="M72.56 272.01l2.27 24.97m24.8 65.05q10.83 16.37 25.76 28.77" stroke="#8fabe7"/><path stroke="#805156" vector-effect="non-scaling-stroke" d="M466.97 431.5l.01-123.49a.99.99 0 0 0-.99-.99l-82.14-.01"/><path stroke="#80454c" vector-effect="non-scaling-stroke" d="M383.85 307.01l-18.67.01a.35.34-5.5 0 0-.34.41c10.69 54.69 28.68 107.63 49.45 159.23a.59.58-11.4 0 0 .56.36c16.1-.57 26.66 13.83 22.64 29.35q-.1.42.33.45c12.28 1.06 23.35-2.43 27.68-14.47q1.49-4.13 1.5-13.38.03-19.17-.03-37.47"/><path stroke="#ff96a2" vector-effect="non-scaling-stroke" d="M383.85 307.01c5.04 37.79 21.01 71.72 48.25 98.39q14.93 14.63 34.87 26.1"/><path vector-effect="non-scaling-stroke" d="M90.59 346.98l47.55.01a.31.3-84.2 0 0 .3-.25l7.83-34.4q.08-.33-.26-.33H77.8" class="D"/><path vector-effect="non-scaling-stroke" d="M77.8 312.01l-21.64.41q-.59.01-.76.58-.39 1.34-.4 2.75-.07 14.32.06 28.69.02 2.53 2.55 2.53l32.98.01" class="F"/><path stroke="#fff1cf" vector-effect="non-scaling-stroke" d="M77.8 312.01q4.51 18.09 12.79 34.97"/><path vector-effect="non-scaling-stroke" d="M496.95 348.48a1.45 1.45 0 0 0-1.45-1.45h-12.06a1.45 1.45 0 0 0-1.45 1.45v32.04a1.45 1.45 0 0 0 1.45 1.45h12.06a1.45 1.45 0 0 0 1.45-1.45v-32.04m.01 79.98a1.43 1.43 0 0 0-1.43-1.43h-12.12a1.43 1.43 0 0 0-1.43 1.43v32.08a1.43 1.43 0 0 0 1.43 1.43h12.12a1.43 1.43 0 0 0 1.43-1.43v-32.08" class="B"/><path vector-effect="non-scaling-stroke" d="M481.04 28.44a7.47 7.47 0 0 0-14.94 0 7.47 7.47 0 0 0 14.94 0" class="D"/><path vector-effect="non-scaling-stroke" d="M228.65 319.75c1.22-7.63 4.52-13.77 10.74-18.61q.48-.37.08-.82l-22.15-25.6q-.36-.41-.79-.06-18.19 15.21-22.28 38.71a.37.35 10.7 0 0 .29.41l33.48 6.41q.54.11.63-.44" class="H"/><path vector-effect="non-scaling-stroke" d="M317.65 313.26c-2.29-15.08-10.44-29.01-22.24-38.61q-.38-.31-.7.07l-22.36 25.81a.33.32-51.7 0 0 .05.46q9.4 7.18 10.96 18.97a.34.34 0 0 0 .4.29l33.49-6.42q.47-.09.4-.57" class="B"/><path vector-effect="non-scaling-stroke" d="M268.39 323.12a12.39 12.39 0 0 0-24.78 0 12.39 12.39 0 0 0 24.78 0m-23.92 25.89l-11.02 31.76q-.2.57.37.77 22.17 8.09 44.37.02.57-.21.37-.78l-11.11-32.01q-.17-.51-.67-.3-10.65 4.38-21.31.09-.74-.3-1 .45" class="H"/><path vector-effect="non-scaling-stroke" d="M62.48 389.34a7.27 7.27 0 0 0-7.27-7.27h-.42a7.27 7.27 0 0 0-7.27 7.27v40.32a7.27 7.27 0 0 0 7.27 7.27h.42a7.27 7.27 0 0 0 7.27-7.27v-40.32m35 0a7.27 7.27 0 0 0-7.27-7.27h-.42a7.27 7.27 0 0 0-7.27 7.27v40.32a7.27 7.27 0 0 0 7.27 7.27h.42a7.27 7.27 0 0 0 7.27-7.27v-40.32" class="I"/></g><path d="M55.32 0h106.46c27.86 4.07 26.09 43.27-1.42 44.97q-.71.05-.61.75l15.12 100.76a.62.61-4.3 0 0 .61.52l14.01-.01a.28.27-13.2 0 0 .25-.39c-14.94-29.28-1.31-63.07 29.35-74.31a2.15 2.15 0 0 0 1.4-1.86c1.12-15.29 12.45-27.76 27.39-30.78 4.88-.99 11.15-.66 16.67-.65q.56 0 .49-.55C262.53 18.49 276.37 2.13 296.07 0h69.51q5.57.74 7.68 1.5c24.27 8.65 31.67 37.95 12.63 56.15q-2.54 2.43-7.2 5.35-.42.26.07.26h37.52a1.01.99 15.3 0 0 .86-.48c17.45-28.31 60.12-7.66 49.26 23.51q-4.31 12.38-18.33 17.15a.51.51 0 0 0-.34.53l17.53 157.77a.29.28 87.6 0 0 .27.25q10.06.03 20.17 0 7.14-.02 10.97 1.28 12.77 4.33 15.33 19.06v4.47q-2.84 15.83-17.55 19.6c-3.6.93-8 .57-11.96.61q-.49 0-.49.5v23.47a1 1 0 0 0 .99 1c5.58.04 12.4-.63 17.19 1.03q9.7 3.37 11.82 14.58v33.94q-2.12 10.79-11.33 14.28c-5.03 1.9-12.3 1.19-18.16 1.19q-.51 0-.51.51v13.72a.76.75.4 0 0 .75.75c5.64.05 12.65-.65 17.52 1.07q9.62 3.39 11.73 14.53v33.95q-2.12 10.78-11.31 14.27c-5.04 1.91-12.35 1.2-18.24 1.2a.61.6-86.8 0 0-.6.54c-2.18 19.43-15.58 32.09-34.85 34.46H34.97C15.61 509.81 1.91 496.36 0 476.96V291.44q3-22.99 24.13-32.05a.51.51 0 0 0 .31-.4L57.2 45.71q.09-.6-.51-.69c-1.67-.25-3.49-.38-4.96-.77-15.38-4.16-21.31-21.82-12.69-34.7Q44.42 1.52 55.32 0zm111.62 22.39a7.38 7.38 0 0 0-7.38-7.38H57.44a7.38 7.38 0 0 0-7.38 7.38v.22a7.38 7.38 0 0 0 7.38 7.38h102.12a7.38 7.38 0 0 0 7.38-7.38v-.22zm97.13 132.43q-1.2 7.11-8.32 7.12-45.75.06-91.5.07c-6.74 0-9.14 10.11-3.36 13.68q2.1 1.31 6.49 1.31 88.43 0 176.86 0c4.27 0 8.17-.49 9.67-4.58 1.92-5.26-1.52-10.39-7.16-10.39q-26.35-.01-52.71-.04c-5.64-.01-9.25-1.29-10.1-7.17.36-6.58 4.55-7.83 10.56-7.82q13.84.01 27.44-.01a1.43 1.42 16.3 0 0 1.2-.65q8.25-12.57 4.44-27.07c-.99-3.78-3.3-7.19-3.75-10.97q-1.23-10.43 7.04-16.74c1.98-1.5 4.92-2.43 6.88-3.74q9.35-6.25 8.7-16.9-.41-6.74-.39-6.88c.88-6.79 7.16-12.32 13.93-12.07q10.91.41 17.08-6.62c8.36-9.52 4.56-24.75-7.09-29.06q-3.52-1.3-13.11-1.3-27.31.01-54.62.02-6.26 0-8.93.75c-8.63 2.43-14.45 10.71-13.53 19.63q.51 4.98.34 6.25-1.14 8.59-9.14 11.48c-7.23 2.61-15.91-.54-23.11 2.11q-7.97 2.94-11.28 11.11-.54 1.35-1.22 5.94c-1.28 8.61-6.03 11.82-13.76 15.08-22.77 9.62-30.95 39.62-14.04 58.96a1.98 1.95 69.2 0 0 1.48.68q21.95.02 43.82-.01c6.27-.01 10.69.88 11.19 7.83zM70.1 60.57a.44.44 0 0 0 .17.42l37.65 28.53a.44.44 0 0 0 .54 0l38.09-29.16a.44.44 0 0 0 .17-.42l-2.17-14.56a.44.44 0 0 0-.44-.38H72.86a.44.44 0 0 0-.44.37l-2.32 15.2zm382.99 16.32a12.46 12.46 0 0 0-24.92 0 12.46 12.46 0 0 0 24.92 0zm-303.71.8a.33.33 0 0 0-.52-.21l-27.94 21.37a.33.33 0 0 0 .01.52l35.12 26.58a.33.33 0 0 0 .53-.31l-7.2-47.95zM95.5 99.43a.33.33 0 0 0-.01-.52l-27.58-20.9a.33.33 0 0 0-.52.22l-7.33 47.61a.33.33 0 0 0 .53.31L95.5 99.43zm336.58 3.6c-10.76-3.79-18.04-12.9-18.87-24.33q-.03-.44-.48-.44l-51.18-.01q-.4 0-.49.39-4.34 17.78-21.11 24.83a2.29 2.28 67.3 0 0-1.22 2.98l2.49 5.95q.23.55.84.55h91q.57 0 .51-.56l-.93-8.65q-.06-.53-.56-.71zM146.3 181.89c-8.33-12.9-2.2-29.95 12.91-34.12a.3.29-34.2 0 0 .1-.52l-50.67-38.39a.65.65 0 0 0-.79.01l-50.83 38.89a1.17 1.14 76 0 0-.43.74l-3.38 22.03q-.07.46.31.72l54.09 37.65a.76.75 44.5 0 0 .85 0l37.69-26.27q.43-.3.15-.74zm207.39-33.76q10.56 3.56 14.54 13.94.2.51.75.51h69.56q.61 0 .54-.6l-3.71-33.48q-.07-.55-.62-.55h-90.29q-.68 0-.69.68-.11 9.2-3.67 17.65-.23.56.37.61c4.63.37 8.67-.29 13.22 1.24zm2.68 41.63q-.99.46-1.96 1.09-.36.23-.35.66l.49 20.3q.01.5.51.5h88.97q.65 0 .58-.64l-3.71-33.46q-.07-.62-.69-.62l-71.7-.01a.66.65-78.4 0 0-.6.4q-3.55 8.05-11.54 11.78zM94.53 218.59a.31.31 0 0 0 0-.5l-43.52-30.34a.31.31 0 0 0-.49.21L40.1 255.87a.31.31 0 0 0 .48.3l53.95-37.58zm108.09 255.95c-.57 6.36-4.71 7.46-10.56 7.46q-47.9.01-95.81 0c-7.68-.01-10.77 10.11-4.1 13.85q2.06 1.15 6.4 1.15 158.48 0 316.95.04c10.43 0 10.59-15.01.25-15.01q-91.42-.02-182.84-.03c-5.85 0-9.74-1.24-10.37-7.5.68-6.48 4.67-7.5 10.67-7.5q82.27 0 164.44 0a.4.4 0 0 0 .37-.54l-13.26-34.98q-15.59-42.84-25.51-81.23-17.77-68.75-19.74-141.5-.21-8.05-.44-16.2-.01-.54-.56-.54L235.02 192l-61.55.02q-.54 0-.55.54-.4 19.99-1.22 34.94-3.91 70.71-23.64 139.45-14.51 50.51-34.09 99.28-.31.77.52.77 38.89 0 78.17 0c5.73 0 9.44 1.48 9.96 7.54zm-47.41-232.49a.55.55 0 0 0 .86-.43l2.12-48a.55.55 0 0 0-.86-.47l-35.53 24.73a.55.55 0 0 0 0 .9l33.41 23.27zm239.6 27.18c-.68 8.44-7.14 7.74-13.36 7.79h-21.12a.28.27 85.5 0 0-.27.32l2.02 14.17a.56.56 0 0 0 .55.48h19.48q53.24.03 106.64.15c10.57.02 11.37-15.1-.25-15.11q-31.62-.03-63.25-.03c-6.01 0-10.1-1.27-10.56-7.78q1.05-7.25 7.81-7.23 13.51.04 26.96-.01a.66.66 0 0 0 .66-.73l-3.71-33.29q-.07-.65-.71-.65l-90.03.01a.49.49 0 0 0-.49.53l2.76 33.58q.04.53.58.53 12.94.11 25.85.04c5.78-.04 9.6 1.15 10.44 7.23zM66.42 256.46a.3.3 0 0 0 .17.54h82.88a.3.3 0 0 0 .17-.54l-41.44-28.87a.3.3 0 0 0-.34 0l-41.44 28.87zm58.97 134.34l8.52-28.19q.18-.58-.42-.58H99.63q-20.79-.06-41.88-.08c-9.78 0-17.49-7.36-17.62-17.2q-.17-12.85-.15-25.71.02-7.74 1.51-11.39 2.77-6.81 9.68-9.39c6.1-2.28 16.29-1.21 23.66-1.28h73.69q.53 0 .61-.52l3.55-23.93a.45.45 0 0 0-.45-.52H72.56q-17.09-.03-34.56-.06c-13.39-.03-23.23 10.56-23.2 23.8q.19 87.72.21 175.43 0 6.26.74 9.08c1.84 7.02 7.29 12.96 14.08 15.38q3.62 1.29 11.68 1.34 16.31.09 32.7-.01.58-.01.41-.57c-4.64-15.54 6.42-29.39 22.39-29.4q.52 0 .72-.48 15.32-38.01 27.66-75.72zm341.58 40.7l.01-123.49a.99.99 0 0 0-.99-.99l-82.14-.01-18.67.01a.35.34-5.5 0 0-.34.41c10.69 54.69 28.68 107.63 49.45 159.23a.59.58-11.4 0 0 .56.36c16.1-.57 26.66 13.83 22.64 29.35q-.1.42.33.45c12.28 1.06 23.35-2.43 27.68-14.47q1.49-4.13 1.5-13.38.03-19.17-.03-37.47zM90.59 346.98l47.55.01a.31.3-84.2 0 0 .3-.25l7.83-34.4q.08-.33-.26-.33H77.8l-21.64.41q-.59.01-.76.58-.39 1.34-.4 2.75-.07 14.32.06 28.69.02 2.53 2.55 2.53l32.98.01zm406.36 1.5a1.45 1.45 0 0 0-1.45-1.45h-12.06a1.45 1.45 0 0 0-1.45 1.45v32.04a1.45 1.45 0 0 0 1.45 1.45h12.06a1.45 1.45 0 0 0 1.45-1.45v-32.04zm.01 79.98a1.43 1.43 0 0 0-1.43-1.43h-12.12a1.43 1.43 0 0 0-1.43 1.43v32.08a1.43 1.43 0 0 0 1.43 1.43h12.12a1.43 1.43 0 0 0 1.43-1.43v-32.08zm-.9-400.01a22.48 22.48 0 1 1-44.96 0 22.48 22.48 0 0 1 44.96 0zm-15.02-.01a7.47 7.47 0 0 0-14.94 0 7.47 7.47 0 0 0 14.94 0z"/><rect x="50.06" y="15.01" width="116.88" height="14.98" rx="7.38" class="C"/><g fill="#fff8e6"><path d="M283.94 154.82h-19.87c-.5-6.95-4.92-7.84-11.19-7.83q-21.87.03-43.82.01a1.98 1.95 69.2 0 1-1.48-.68c-16.91-19.34-8.73-49.34 14.04-58.96 7.73-3.26 12.48-6.47 13.76-15.08q.68-4.59 1.22-5.94 3.31-8.17 11.28-11.11c7.2-2.65 15.88.5 23.11-2.11q8-2.89 9.14-11.48.17-1.27-.34-6.25c-.92-8.92 4.9-17.2 13.53-19.63q2.67-.75 8.93-.75 27.31-.01 54.62-.02 9.59 0 13.11 1.3c11.65 4.31 15.45 19.54 7.09 29.06q-6.17 7.03-17.08 6.62c-6.77-.25-13.05 5.28-13.93 12.07q-.02.14.39 6.88.65 10.65-8.7 16.9c-1.96 1.31-4.9 2.24-6.88 3.74q-8.27 6.31-7.04 16.74c.45 3.78 2.76 7.19 3.75 10.97q3.81 14.5-4.44 27.07a1.43 1.42 16.3 0 1-1.2.65q-13.6.02-27.44.01c-6.01-.01-10.2 1.24-10.56 7.82z"/><circle cx="473.57" cy="28.44" r="7.47"/><circle cx="440.63" cy="76.89" r="12.46"/></g><path d="M413.21 78.7c.83 11.43 8.11 20.54 18.87 24.33q.5.18.56.71l.93 8.65q.06.56-.51.56h-91q-.61 0-.84-.55l-2.49-5.95a2.29 2.28 67.3 0 1 1.22-2.98q16.77-7.05 21.11-24.83.09-.39.49-.39l51.18.01q.45 0 .48.44z" class="J"/><path fill="#ffa93f" d="M353.69 148.13c-4.55-1.53-8.59-.87-13.22-1.24q-.6-.05-.37-.61 3.56-8.45 3.67-17.65.01-.68.69-.68h90.29q.55 0 .62.55l3.71 33.48q.07.6-.54.6h-69.56q-.55 0-.75-.51-3.98-10.38-14.54-13.94z"/><path fill="#9be1ec" d="M283.94 154.82c.85 5.88 4.46 7.16 10.1 7.17q26.36.03 52.71.04c5.64 0 9.08 5.13 7.16 10.39-1.5 4.09-5.4 4.58-9.67 4.58q-88.43 0-176.86 0-4.39 0-6.49-1.31c-5.78-3.57-3.38-13.68 3.36-13.68q45.75-.01 91.5-.07 7.12-.01 8.32-7.12h19.87z"/><path d="M356.37 189.76q7.99-3.73 11.54-11.78a.66.65-78.4 0 1 .6-.4l71.7.01q.62 0 .69.62l3.71 33.46q.07.64-.58.64h-88.97q-.5 0-.51-.5l-.49-20.3q-.01-.43.35-.66.97-.63 1.96-1.09z" class="J"/><path fill="#77899b" d="M235.02 192q3.01 34.3 12 66.49 4.65 16.68 12.04 34.47l-2.04 2.31a1.38 1.38 0 0 1-2.08-.01q-13.16-15.22-26.39-30.46c-7.34-8.47-13.89-8.25-22.44-.99q-20.3 17.26-26.1 43.94c-1.6 7.36-1.85 13.61 3.9 17.89q2.38 1.78 8.6 2.99 19.47 3.79 38.79 7.47a1.44 1.44 0 0 1 1.1 1.88q-6.82 19.81-13.83 39.81c-3.46 9.87 2.48 15.16 11.33 18.27q26.19 9.18 52.56-.1c6.16-2.17 11.05-5.03 11.72-11.63q.34-3.41-2.42-11.3-6.15-17.56-12.21-35.15-.16-.48.11-.91.65-1.03 1.68-.96 18.28 28.66 42.72 51.66 27.05 25.47 60.7 43.81l13.26 34.98a.4.4 0 0 1-.37.54q-82.17 0-164.44 0c-6 0-9.99 1.02-10.67 7.5l-19.92.04c-.52-6.06-4.23-7.54-9.96-7.54q-39.28 0-78.17 0-.83 0-.52-.77 19.58-48.77 34.09-99.28 19.73-68.74 23.64-139.45.82-14.95 1.22-34.94.01-.54.55-.54l61.55-.02z"/><path fill="#8697a6" d="M235.02 192l103.49.01q.55 0 .56.54.23 8.15.44 16.2 1.97 72.75 19.74 141.5 9.92 38.39 25.51 81.23-33.65-18.34-60.7-43.81-24.44-23-42.72-51.66 19.42-3.76 38.13-7.31c10.96-2.08 14.98-7.15 12.89-18.77q-5.14-28.52-27.72-47.36c-4.42-3.69-10.14-5.54-15.3-2.99q-2.39 1.18-6.13 5.49-11.69 13.5-24.15 27.89-7.39-17.79-12.04-34.47-8.99-32.19-12-66.49z"/><path fill="#ffa93f" d="M414.69 269.22l-19.88.01c-.84-6.08-4.66-7.27-10.44-7.23q-12.91.07-25.85-.04-.54 0-.58-.53l-2.76-33.58a.49.49 0 0 1 .49-.53l90.03-.01q.64 0 .71.65l3.71 33.29a.66.66 0 0 1-.66.73q-13.45.05-26.96.01-6.76-.02-7.81 7.23z"/><path d="M259.06 292.96q12.46-14.39 24.15-27.89 3.74-4.31 6.13-5.49c5.16-2.55 10.88-.7 15.3 2.99q22.58 18.84 27.72 47.36c2.09 11.62-1.93 16.69-12.89 18.77q-18.71 3.55-38.13 7.31-1.03-.07-1.68.96-.27.43-.11.91 6.06 17.59 12.21 35.15 2.76 7.89 2.42 11.3c-.67 6.6-5.56 9.46-11.72 11.63q-26.37 9.28-52.56.1c-8.85-3.11-14.79-8.4-11.33-18.27q7.01-20 13.83-39.81a1.44 1.44 0 0 0-1.1-1.88q-19.32-3.68-38.79-7.47-6.22-1.21-8.6-2.99c-5.75-4.28-5.5-10.53-3.9-17.89q5.8-26.68 26.1-43.94c8.55-7.26 15.1-7.48 22.44.99q13.23 15.24 26.39 30.46a1.38 1.38 0 0 0 2.08.01l2.04-2.31zm-30.41 26.79c1.22-7.63 4.52-13.77 10.74-18.61q.48-.37.08-.82l-22.15-25.6q-.36-.41-.79-.06-18.19 15.21-22.28 38.71a.37.35 10.7 0 0 .29.41l33.48 6.41q.54.11.63-.44zm89-6.49c-2.29-15.08-10.44-29.01-22.24-38.61q-.38-.31-.7.07l-22.36 25.81a.33.32-51.7 0 0 .05.46q9.4 7.18 10.96 18.97a.34.34 0 0 0 .4.29l33.49-6.42q.47-.09.4-.57zm-49.26 9.86a12.39 12.39 0 0 0-24.78 0 12.39 12.39 0 0 0 24.78 0zm-23.92 25.89l-11.02 31.76q-.2.57.37.77 22.17 8.09 44.37.02.57-.21.37-.78l-11.11-32.01q-.17-.51-.67-.3-10.65 4.38-21.31.09-.74-.3-1 .45z"/><path d="M394.81 269.23l19.88-.01c.46 6.51 4.55 7.78 10.56 7.78q31.63 0 63.25.03c11.62.01 10.82 15.13.25 15.11q-53.4-.12-106.64-.15l-.66-14.97c6.22-.05 12.68.65 13.36-7.79z" class="C"/><path fill="#85a4e4" d="M72.56 272.01l2.27 24.97c-7.37.07-17.56-1-23.66 1.28q-6.91 2.58-9.68 9.39-1.49 3.65-1.51 11.39-.02 12.86.15 25.71c.13 9.84 7.84 17.2 17.62 17.2q21.09.02 41.88.08 10.83 16.37 25.76 28.77-12.34 37.71-27.66 75.72-.2.48-.72.48c-15.97.01-27.03 13.86-22.39 29.4q.17.56-.41.57-16.39.1-32.7.01-8.06-.05-11.68-1.34c-6.79-2.42-12.24-8.36-14.08-15.38q-.74-2.82-.74-9.08-.02-87.71-.21-175.43c-.03-13.24 9.81-23.83 23.2-23.8q17.47.03 34.56.06zM62.48 389.34a7.27 7.27 0 0 0-7.27-7.27h-.42a7.27 7.27 0 0 0-7.27 7.27v40.32a7.27 7.27 0 0 0 7.27 7.27h.42a7.27 7.27 0 0 0 7.27-7.27v-40.32zm35 0a7.27 7.27 0 0 0-7.27-7.27h-.42a7.27 7.27 0 0 0-7.27 7.27v40.32a7.27 7.27 0 0 0 7.27 7.27h.42a7.27 7.27 0 0 0 7.27-7.27v-40.32z"/><path fill="#99b2e9" d="M72.56 272.01h79.67a.45.45 0 0 1 .45.52l-3.55 23.93q-.08.52-.61.52H74.83l-2.27-24.97z"/><path d="M239.39 301.14c-6.22 4.84-9.52 10.98-10.74 18.61q-.09.55-.63.44l-33.48-6.41a.37.35 10.7 0 1-.29-.41q4.09-23.5 22.28-38.71.43-.35.79.06l22.15 25.6q.4.45-.08.82z" class="E"/><path d="M295.41 274.65c11.8 9.6 19.95 23.53 22.24 38.61q.07.48-.4.57l-33.49 6.42a.34.34 0 0 1-.4-.29q-1.56-11.79-10.96-18.97a.33.32-51.7 0 1-.05-.46l22.36-25.81q.32-.38.7-.07z" class="C"/><path d="M381.45 277.02l.66 14.97h-19.48a.56.56 0 0 1-.55-.48l-2.02-14.17a.28.27 85.5 0 1 .27-.32h21.12z" class="E"/><path fill="#ff8a98" d="M383.85 307.01c5.04 37.79 21.01 71.72 48.25 98.39q14.93 14.63 34.87 26.1.06 18.3.03 37.47-.01 9.25-1.5 13.38c-4.33 12.04-15.4 15.53-27.68 14.47q-.43-.03-.33-.45c4.02-15.52-6.54-29.92-22.64-29.35a.59.58-11.4 0 1-.56-.36c-20.77-51.6-38.76-104.54-49.45-159.23a.35.34-5.5 0 1 .34-.41l18.67-.01z"/><path fill="#ffa1ac" d="M383.85 307.01l82.14.01a.99.99 0 0 1 .99.99l-.01 123.49q-19.94-11.47-34.87-26.1c-27.24-26.67-43.21-60.6-48.25-98.39z"/><circle cx="256" cy="323.12" r="12.39" class="E"/><path d="M77.8 312.01q4.51 18.09 12.79 34.97l-32.98-.01q-2.53 0-2.55-2.53-.13-14.37-.06-28.69.01-1.41.4-2.75.17-.57.76-.58l21.64-.41z" class="J"/><path fill="#fff8e6" d="M77.8 312.01h68.21q.34 0 .26.33l-7.83 34.4a.31.3-84.2 0 1-.3.25l-47.55-.01q-8.28-16.88-12.79-34.97z"/><rect x="481.99" y="347.03" width="14.96" height="34.94" rx="1.45" class="C"/><path d="M244.47 349.01q.26-.75 1-.45 10.66 4.29 21.31-.09.5-.21.67.3l11.11 32.01q.2.57-.37.78-22.2 8.07-44.37-.02-.57-.2-.37-.77l11.02-31.76z" class="E"/><path fill="#99b2e9" d="M99.63 362.03h33.86q.6 0 .42.58l-8.52 28.19q-14.93-12.4-25.76-28.77z"/><rect x="47.52" y="382.07" width="14.96" height="54.86" rx="7.27"/><rect x="82.52" y="382.07" width="14.96" height="54.86" rx="7.27"/><rect x="481.98" y="427.03" width="14.98" height="34.94" rx="1.43" class="C"/><path fill="#9be1ec" d="M202.62 474.54l19.92-.04c.63 6.26 4.52 7.5 10.37 7.5q91.42.01 182.84.03c10.34 0 10.18 15.01-.25 15.01Q257.03 497 98.55 497q-4.34 0-6.4-1.15c-6.67-3.74-3.58-13.86 4.1-13.85q47.91.01 95.81 0c5.85 0 9.99-1.1 10.56-7.46z"/></svg>