<svg xmlns="http://www.w3.org/2000/svg" viewBox="0 0 512 512" xmlns:v="https://vecta.io/nano"><style><![CDATA[.B{stroke-width:2}.C{fill:#1b1b1b}]]></style><g fill="none" class="B"><g stroke="#273230"><path vector-effect="non-scaling-stroke" d="M8.54 179.13c7.29.78 8.51 5.27 8.51 12.05q0 100.53.13 201.07c.03 20.08 13.54 37.45 32.91 41.82q5.2 1.17 19.91 1.17 187.69.01 375.38 0c11.86 0 20.58-.75 29.54-6.55q19.94-12.93 19.96-37.69.07-135.5.08-271c0-24.51-19.41-43.3-43.71-43.3q-190.88.05-381.76.06-14.48 0-19.89 1.26c-19.11 4.42-32.32 21.97-32.43 41.48q-.1 15.74-.14 31.48-.02 5.12-1.38 7.27-2.17 3.43-7.09 4.02"/><path vector-effect="non-scaling-stroke" d="M452.21 349.85a25.65 25.65 0 0 0 25.65-25.65V119.51a25.65 25.65 0 0 0-25.65-25.65l-392.41.01a25.65 25.65 0 0 0-25.65 25.65V324.2a25.65 25.65 0 0 0 25.65 25.65h392.41m-306.97 66.7c23.14-8.2 21.75-41.1-.61-48.23q-4.35-1.39-12.9-1.39-21.32.01-42.65.04-7.96 0-12.02 1.39c-21.15 7.25-23.64 37.06-3.16 46.94q5.86 2.83 13.35 2.84 20.68.04 41.35.02 12.15-.01 16.64-1.61m61.67-34.12c-7.27 17.22 5.3 35.73 23.84 35.73q25.13 0 50.25.02c13.28.01 24.13-9.32 26-22.31 1.71-11.84-5.87-23.75-16.98-27.48q-4.21-1.42-12.7-1.43-20.97-.04-41.93 0-9.26.01-13.6 1.47-10.44 3.5-14.88 14m228.67 34.15c22.14-7.57 22.1-41.2-.79-48.39q-3.88-1.22-12.21-1.22-20-.02-40.01-.04-10.94-.01-15.48 1.5c-13.81 4.61-21.39 21.15-15.05 34.54q7.32 15.45 25.46 15.34 20.38-.12 40.75-.15 12.76-.01 17.33-1.58"/></g><g stroke="#323f3d"><path vector-effect="non-scaling-stroke" d="M460.76 119.42a8.46 8.46 0 0 0-8.46-8.46H59.7a8.46 8.46 0 0 0-8.46 8.46V324.3a8.46 8.46 0 0 0 8.46 8.46h392.6a8.46 8.46 0 0 0 8.46-8.46V119.42"/><path vector-effect="non-scaling-stroke" d="M391.74 233.41q.62-.15.65.48 1.27 20.7-9.67 37.36c-1.98 3.01-4.55 6.35-5.58 9.57-4.13 12.96 4.74 19.12 12.61 27.04q4.76 4.78 7.88 6.18c7.58 3.42 16.64.73 21.73-5.68 44.71-56.32 25.75-137.3-38.17-169.3-40.12-20.08-91.44-12.1-124.1 18.78-41.04 38.8-47.28 102.21-12.89 147.89 4.79 6.36 9.98 10.48 17.8 9.75 8.76-.82 13.22-6.87 18.75-12.4q5.59-5.58 7.11-8.84c4.46-9.58-.31-15.61-5.38-23.65-25.43-40.27 4.29-92.82 52.11-91.38 24.01.73 43.77 14.85 53.46 36.97a.48.48 0 0 1-.33.66l-33.07 8.01q-.51.13-.8-.3c-17.11-24.37-54.25-5.37-45.42 22.2 8.23 25.74 46.02 22.59 49.66-4.82a.56.55-3.2 0 1 .42-.46l33.23-8.06m-231.07-37.7q6.96-19.95 14.1-39.84c3.62-10.08-3.59-19.21-14.02-19.25q-18.76-.07-37.5-.1-8.96-.02-12.29 1.44-6.46 2.83-8.13 10.8-8.24 39.24-16.52 78.46c-1.33 6.27-1.59 10.19 2.31 14.95q4.28 5.21 9.69 5.26 12.09.11 24.04.02a.5.49 5.7 0 1 .49.59q-4.14 21.17-8.26 42.17-1.1 5.61-.6 8.15c1.37 6.98 10.46 10.99 16.39 7.72q2.74-1.51 6.94-7.46 28.19-39.95 56.24-79.99c5.26-7.51 2.22-17.98-6.01-21.21q-2.99-1.18-11.22-1.15-7.63.02-15.27-.03-.56-.01-.38-.53"/></g><path stroke="#827338" vector-effect="non-scaling-stroke" d="M392.4 166.56c-34.6-28.76-84.85-28.52-119.31.07a.36.36 0 0 0-.02.53l11.52 11.52a.49.48 48.7 0 0 .65.05c26.12-20.17 61.91-22.46 89.62-3.79q2.72 1.83 5.45 3.7.42.29.77-.07l11.35-11.34q.35-.35-.03-.67"/><path stroke="#57723f" vector-effect="non-scaling-stroke" d="M260.62 179.12c-28.39 34.45-28.97 83.82-.97 118.72a1.38 1.37 47.9 0 0 2.05.11l10.37-10.37q.77-.77.11-1.63c-21.63-28.3-21.53-66.46.42-94.51a.52.52 0 0 0-.04-.7l-11.63-11.64a.21.21 0 0 0-.31.02"/><path stroke="#7c363a" vector-effect="non-scaling-stroke" d="M408.81 228.65c2.6 20.68-2.78 40.89-15.45 57.45a1.1 1.1 0 0 0 .1 1.45l10.61 10.6a1.14 1.14 0 0 0 1.69-.1c28.17-34.96 27.76-83.97-.55-118.71q-.32-.4-.69-.03l-11.37 11.4q-.41.4-.05.85 7.59 9.59 11.79 21.08c.36.98 1.16 1.57 2.06 1.99 5.46 2.56 6.43 8.88 2.16 13.13q-.37.37-.3.89"/><path stroke="#7f7f7f" vector-effect="non-scaling-stroke" d="M341.31 238.94a8.51 8.51 0 0 0-17.02 0 8.51 8.51 0 0 0 17.02 0"/><path stroke="#827338" vector-effect="non-scaling-stroke" d="M157.39 154.12q.19-.53-.37-.53l-37.29-.01q-.46 0-.55.44l-15.95 75.75q-.13.59.47.59 13 .16 26.01.03c5.18-.05 9.77.39 11.5 5.5q.91 2.69-.28 8.69-2.6 13.1-5.09 25.95-.15.79.32.14l40.16-56.9q.33-.46-.24-.46-12.98 0-26.21-.01c-7.29-.01-12.07-4.75-9.28-12.47q8.41-23.22 16.8-46.71"/><path vector-effect="non-scaling-stroke" d="M144.97 392.251a8.29 8.29 0 0 0-8.305-8.276l-51.52.09a8.29 8.29 0 0 0-8.276 8.304v.44a8.29 8.29 0 0 0 8.304 8.276l51.52-.09a8.29 8.29 0 0 0 8.276-8.304v-.44m145.071.108a8.29 8.29 0 0 0-8.276-8.304l-51.5-.09a8.29 8.29 0 0 0-8.305 8.275v.44a8.29 8.29 0 0 0 8.275 8.304l51.5.09a8.29 8.29 0 0 0 8.305-8.276v-.44m145.091.001a8.29 8.29 0 0 0-8.275-8.304l-51.52-.09a8.29 8.29 0 0 0-8.305 8.275v.44a8.29 8.29 0 0 0 8.276 8.304l51.52.09a8.29 8.29 0 0 0 8.304-8.276v-.44" stroke="#323f3d"/></g><path d="M512 115.87v280.39c-2.54 26.63-20.5 48.88-46.85 54.62q-6.3 1.37-19.9 1.37-188.88.01-377.75.01-13.7 0-19.91-1.28C21.13 445.54 2.29 423.17 0 396.19V186.42q1.75-6.7 8.54-7.29c7.29.78 8.51 5.27 8.51 12.05q0 100.53.13 201.07c.03 20.08 13.54 37.45 32.91 41.82q5.2 1.17 19.91 1.17 187.69.01 375.38 0c11.86 0 20.58-.75 29.54-6.55q19.94-12.93 19.96-37.69.07-135.5.08-271c0-24.51-19.41-43.3-43.71-43.3q-190.88.05-381.76.06-14.48 0-19.89 1.26c-19.11 4.42-32.32 21.97-32.43 41.48q-.1 15.74-.14 31.48-.02 5.12-1.38 7.27-2.17 3.43-7.09 4.02-7.08-.82-8.56-7.58v-39c2.36-27.18 21.57-49.71 48.32-54.82q5.94-1.13 19.92-1.13 188.5 0 377 .01 13.62 0 19.91 1.37c26.41 5.73 44.37 28.07 46.85 54.75z" class="C"/><path fill="#334945" d="M8.54 179.13l.02-16.86q4.92-.59 7.09-4.02 1.36-2.15 1.38-7.27.04-15.74.14-31.48c.11-19.51 13.32-37.06 32.43-41.48q5.41-1.26 19.89-1.26 190.88-.01 381.76-.06c24.3 0 43.71 18.79 43.71 43.3q-.01 135.5-.08 271-.02 24.76-19.96 37.69c-8.96 5.8-17.68 6.55-29.54 6.55q-187.69.01-375.38 0-14.71 0-19.91-1.17c-19.37-4.37-32.88-21.74-32.91-41.82q-.13-100.54-.13-201.07c0-6.78-1.22-11.27-8.51-12.05zm443.67 170.72a25.65 25.65 0 0 0 25.65-25.65V119.51a25.65 25.65 0 0 0-25.65-25.65l-392.41.01a25.65 25.65 0 0 0-25.65 25.65V324.2a25.65 25.65 0 0 0 25.65 25.65h392.41zm-306.97 66.7c23.14-8.2 21.75-41.1-.61-48.23q-4.35-1.39-12.9-1.39-21.32.01-42.65.04-7.96 0-12.02 1.39c-21.15 7.25-23.64 37.06-3.16 46.94q5.86 2.83 13.35 2.84 20.68.04 41.35.02 12.15-.01 16.64-1.61zm61.67-34.12c-7.27 17.22 5.3 35.73 23.84 35.73q25.13 0 50.25.02c13.28.01 24.13-9.32 26-22.31 1.71-11.84-5.87-23.75-16.98-27.48q-4.21-1.42-12.7-1.43-20.97-.04-41.93 0-9.26.01-13.6 1.47-10.44 3.5-14.88 14zm228.67 34.15c22.14-7.57 22.1-41.2-.79-48.39q-3.88-1.22-12.21-1.22-20-.02-40.01-.04-10.94-.01-15.48 1.5c-13.81 4.61-21.39 21.15-15.05 34.54q7.32 15.45 25.46 15.34 20.38-.12 40.75-.15 12.76-.01 17.33-1.58z"/><path d="M452.21 349.85H59.8a25.65 25.65 0 0 1-25.65-25.65V119.52A25.65 25.65 0 0 1 59.8 93.87l392.41-.01a25.65 25.65 0 0 1 25.65 25.65V324.2a25.65 25.65 0 0 1-25.65 25.65zm8.55-230.43a8.46 8.46 0 0 0-8.46-8.46H59.7a8.46 8.46 0 0 0-8.46 8.46V324.3a8.46 8.46 0 0 0 8.46 8.46h392.6a8.46 8.46 0 0 0 8.46-8.46V119.42z" class="C"/><path fill="#49635e" d="M460.76 324.3a8.46 8.46 0 0 1-8.46 8.46H59.7a8.46 8.46 0 0 1-8.46-8.46V119.42a8.46 8.46 0 0 1 8.46-8.46h392.6a8.46 8.46 0 0 1 8.46 8.46V324.3zm-69.02-90.89q.62-.15.65.48 1.27 20.7-9.67 37.36c-1.98 3.01-4.55 6.35-5.58 9.57-4.13 12.96 4.74 19.12 12.61 27.04q4.76 4.78 7.88 6.18c7.58 3.42 16.64.73 21.73-5.68 44.71-56.32 25.75-137.3-38.17-169.3-40.12-20.08-91.44-12.1-124.1 18.78-41.04 38.8-47.28 102.21-12.89 147.89 4.79 6.36 9.98 10.48 17.8 9.75 8.76-.82 13.22-6.87 18.75-12.4q5.59-5.58 7.11-8.84c4.46-9.58-.31-15.61-5.38-23.65-25.43-40.27 4.29-92.82 52.11-91.38 24.01.73 43.77 14.85 53.46 36.97a.48.48 0 0 1-.33.66l-33.07 8.01q-.51.13-.8-.3c-17.11-24.37-54.25-5.37-45.42 22.2 8.23 25.74 46.02 22.59 49.66-4.82a.56.55-3.2 0 1 .42-.46l33.23-8.06zm-231.07-37.7q6.96-19.95 14.1-39.84c3.62-10.08-3.59-19.21-14.02-19.25q-18.76-.07-37.5-.1-8.96-.02-12.29 1.44-6.46 2.83-8.13 10.8-8.24 39.24-16.52 78.46c-1.33 6.27-1.59 10.19 2.31 14.95q4.28 5.21 9.69 5.26 12.09.11 24.04.02a.5.49 5.7 0 1 .49.59q-4.14 21.17-8.26 42.17-1.1 5.61-.6 8.15c1.37 6.98 10.46 10.99 16.39 7.72q2.74-1.51 6.94-7.46 28.19-39.95 56.24-79.99c5.26-7.51 2.22-17.98-6.01-21.21q-2.99-1.18-11.22-1.15-7.63.02-15.27-.03-.56-.01-.38-.53z"/><path d="M391.74 233.41l-33.23 8.06a.56.55-3.2 0 0-.42.46c-3.64 27.41-41.43 30.56-49.66 4.82-8.83-27.57 28.31-46.57 45.42-22.2q.29.43.8.3l33.07-8.01a.48.48 0 0 0 .33-.66c-9.69-22.12-29.45-36.24-53.46-36.97-47.82-1.44-77.54 51.11-52.11 91.38 5.07 8.04 9.84 14.07 5.38 23.65q-1.52 3.26-7.11 8.84c-5.53 5.53-9.99 11.58-18.75 12.4-7.82.73-13.01-3.39-17.8-9.75-34.39-45.68-28.15-109.09 12.89-147.89 32.66-30.88 83.98-38.86 124.1-18.78 63.92 32 82.88 112.98 38.17 169.3-5.09 6.41-14.15 9.1-21.73 5.68q-3.12-1.4-7.88-6.18c-7.87-7.92-16.74-14.08-12.61-27.04 1.03-3.22 3.6-6.56 5.58-9.57q10.94-16.66 9.67-37.36-.03-.63-.65-.48zm.66-66.85c-34.6-28.76-84.85-28.52-119.31.07a.36.36 0 0 0-.02.53l11.52 11.52a.49.48 48.7 0 0 .65.05c26.12-20.17 61.91-22.46 89.62-3.79q2.72 1.83 5.45 3.7.42.29.77-.07l11.35-11.34q.35-.35-.03-.67zm-131.78 12.56c-28.39 34.45-28.97 83.82-.97 118.72a1.38 1.37 47.9 0 0 2.05.11l10.37-10.37q.77-.77.11-1.63c-21.63-28.3-21.53-66.46.42-94.51a.52.52 0 0 0-.04-.7l-11.63-11.64a.21.21 0 0 0-.31.02zm148.19 49.53c2.6 20.68-2.78 40.89-15.45 57.45a1.1 1.1 0 0 0 .1 1.45l10.61 10.6a1.14 1.14 0 0 0 1.69-.1c28.17-34.96 27.76-83.97-.55-118.71q-.32-.4-.69-.03l-11.37 11.4q-.41.4-.05.85 7.59 9.59 11.79 21.08c.36.98 1.16 1.57 2.06 1.99 5.46 2.56 6.43 8.88 2.16 13.13q-.37.37-.3.89zm-67.5 10.29a8.51 8.51 0 0 0-17.02 0 8.51 8.51 0 0 0 17.02 0zm-180.26-42.7q7.64.05 15.27.03 8.23-.03 11.22 1.15c8.23 3.23 11.27 13.7 6.01 21.21q-28.05 40.04-56.24 79.99-4.2 5.95-6.94 7.46c-5.93 3.27-15.02-.74-16.39-7.72q-.5-2.54.6-8.15 4.12-21 8.26-42.17a.5.49 5.7 0 0-.49-.59q-11.95.09-24.04-.02-5.41-.05-9.69-5.26c-3.9-4.76-3.64-8.68-2.31-14.95q8.28-39.22 16.52-78.46 1.67-7.97 8.13-10.8 3.33-1.46 12.29-1.44 18.74.03 37.5.1c10.43.04 17.64 9.17 14.02 19.25q-7.14 19.89-14.1 39.84-.18.52.38.53zm-3.66-42.12q.19-.53-.37-.53l-37.29-.01q-.46 0-.55.44l-15.95 75.75q-.13.59.47.59 13 .16 26.01.03c5.18-.05 9.77.39 11.5 5.5q.91 2.69-.28 8.69-2.6 13.1-5.09 25.95-.15.79.32.14l40.16-56.9q.33-.46-.24-.46-12.98 0-26.21-.01c-7.29-.01-12.07-4.75-9.28-12.47q8.41-23.22 16.8-46.71z" class="C"/><path d="M273.09 166.63c34.46-28.59 84.71-28.83 119.31-.07q.38.32.03.67l-11.35 11.34q-.35.36-.77.07-2.73-1.87-5.45-3.7c-27.71-18.67-63.5-16.38-89.62 3.79a.49.48 48.7 0 1-.65-.05l-11.52-11.52a.36.36 0 0 1 .02-.53zm-115.7-12.51q-8.39 23.49-16.8 46.71c-2.79 7.72 1.99 12.46 9.28 12.47q13.23.01 26.21.01.57 0 .24.46l-40.16 56.9q-.47.65-.32-.14 2.49-12.85 5.09-25.95 1.19-6 .28-8.69c-1.73-5.11-6.32-5.55-11.5-5.5q-13.01.13-26.01-.03-.6 0-.47-.59l15.95-75.75q.09-.44.55-.44l37.29.01q.56 0 .37.53z" fill="#e8cb55"/><path fill="#92c962" d="M259.65 297.84c-28-34.9-27.42-84.27.97-118.72a.21.21 0 0 1 .31-.02l11.63 11.64a.52.52 0 0 1 .04.7c-21.95 28.05-22.05 66.21-.42 94.51q.66.86-.11 1.63l-10.37 10.37a1.38 1.37 47.9 0 1-2.05-.11z"/><path fill="#dd5158" d="M393.36 286.1c12.67-16.56 18.05-36.77 15.45-57.45q-.07-.52.3-.89c4.27-4.25 3.3-10.57-2.16-13.13-.9-.42-1.7-1.01-2.06-1.99q-4.2-11.49-11.79-21.08-.36-.45.05-.85l11.37-11.4q.37-.37.69.03c28.31 34.74 28.72 83.75.55 118.71a1.14 1.14 0 0 1-1.69.1l-10.61-10.6a1.1 1.1 0 0 1-.1-1.45z"/><circle fill="#e2e2e2" cx="332.8" cy="238.94" r="8.51"/><path d="M144.63 368.32c22.36 7.13 23.75 40.03.61 48.23q-4.49 1.6-16.64 1.61-20.67.02-41.35-.02-7.49-.01-13.35-2.84c-20.48-9.88-17.99-39.69 3.16-46.94q4.06-1.39 12.02-1.39 21.33-.03 42.65-.04 8.55 0 12.9 1.39zm.34 23.931a8.29 8.29 0 0 0-8.305-8.276l-51.52.09a8.29 8.29 0 0 0-8.276 8.304v.44a8.29 8.29 0 0 0 8.304 8.276l51.52-.09a8.29 8.29 0 0 0 8.276-8.304v-.44zm61.94-9.821q4.44-10.5 14.88-14 4.34-1.46 13.6-1.47 20.96-.04 41.93 0 8.49.01 12.7 1.43c11.11 3.73 18.69 15.64 16.98 27.48-1.87 12.99-12.72 22.32-26 22.31q-25.12-.02-50.25-.02c-18.54 0-31.11-18.51-23.84-35.73zm83.13 9.929a8.29 8.29 0 0 0-8.276-8.304l-51.5-.09a8.29 8.29 0 0 0-8.305 8.275v.44a8.29 8.29 0 0 0 8.275 8.304l51.5.09a8.29 8.29 0 0 0 8.305-8.276v-.44zm144.75-24.169c22.89 7.19 22.93 40.82.79 48.39q-4.57 1.57-17.33 1.58-20.37.03-40.75.15-18.14.11-25.46-15.34c-6.34-13.39 1.24-29.93 15.05-34.54q4.54-1.51 15.48-1.5 20.01.02 40.01.04 8.33 0 12.21 1.22zm.34 24.169a8.29 8.29 0 0 0-8.275-8.304l-51.52-.09a8.29 8.29 0 0 0-8.305 8.275v.44a8.29 8.29 0 0 0 8.276 8.304l51.52.09a8.29 8.29 0 0 0 8.304-8.276v-.44z" class="C"/><g fill="#49635e"><rect x="-34.05" y="-8.51" transform="matrix(.999998 -.001745 .001745 .999998 110.92 392.53)" width="68.1" height="17.02" rx="8.29"/><rect x="-34.04" y="-8.51" transform="matrix(.999998 .001745 -.001745 .999998 256 392.52)" width="68.08" height="17.02" rx="8.29"/><rect x="-34.05" y="-8.51" transform="matrix(.999998 .001745 -.001745 .999998 401.08 392.52)" width="68.1" height="17.02" rx="8.29"/></g></svg>