<svg xmlns="http://www.w3.org/2000/svg" viewBox="0 0 512 512" xmlns:v="https://vecta.io/nano"><g fill="none" stroke-width="2"><path stroke="#20608f" vector-effect="non-scaling-stroke" d="M272.42 96.75c-.66 5.92-4.35 7.04-9.9 7.03q-6.34-.02-12.8-.01-.52 0-.79.45l-18.68 31.2a.23.23 0 0 0 .2.35h62.5a.7.69 15 0 0 .6-.34l18.66-31.17q.27-.44-.25-.45-6.42-.13-12.7-.02-7.48.13-8.31-7.03"/><path vector-effect="non-scaling-stroke" d="M404.49 342.68q-7.13-.95-7.03-8.18.1-7.1.01-14.27 0-.49-.49-.49H376q-.51 0-.51.51v110.5q0 .25.26.25h21.23q.49 0 .5-.5.07-12.05-.01-23.99-.05-7.23 7.01-8.09m-39.55 87.57q.9-7.01 7.56-7.01 43.15.04 86.33.01.24 0 .24-.24v-9.47q0-.28-.28-.28H314.06q-.2 0-.2.2l-.04 9.49q0 .3.29.3 9.76.02 19.67.01c5.5 0 9.26 1.07 9.85 7m60.86-133.56c-6.11.6-7.01 4.45-7 10.07q.01 6.21.02 12.42c.01 5.25 1.47 8.62 6.97 9.12" stroke="#788188"/><path stroke="#817827" vector-effect="non-scaling-stroke" d="M132.98 92a40.98 40.98 0 0 0-81.96 0 40.98 40.98 0 1 0 81.96 0"/><path vector-effect="non-scaling-stroke" d="M329 103.76a.33.33 0 0 0-.29.16l-18.76 31.35a.33.33 0 0 0 .28.5h62.55a.33.33 0 0 0 .29-.16l18.74-31.34a.33.33 0 0 0-.28-.5l-62.53-.01m79.61.01a.31.31 0 0 0-.27.15l-18.78 31.38a.31.31 0 0 0 .27.47h64.47a.31.31 0 0 0 .27-.15l18.81-31.38a.31.31 0 0 0-.27-.47h-64.5m-143.01 78a.34.34 0 0 0 .29-.17l18.76-31.32a.34.34 0 0 0-.29-.51h-62.5a.34.34 0 0 0-.29.17l-18.76 31.32a.34.34 0 0 0 .29.51h62.5m35.85-32a.33.33 0 0 0-.29.16l-18.74 31.34a.33.33 0 0 0 .28.5h62.53a.33.33 0 0 0 .29-.16l18.77-31.34a.33.33 0 0 0-.28-.5h-62.56m125.33 32a.32.32 0 0 0 .27-.16l18.78-31.36a.32.32 0 0 0-.27-.48l-64.48-.01a.32.32 0 0 0-.27.16l-18.79 31.37a.32.32 0 0 0 .27.48h64.49m-232.47 14a.34.34 0 0 0-.29.17l-18.74 31.32a.34.34 0 0 0 .29.51h62.5a.34.34 0 0 0 .29-.17l18.76-31.32a.34.34 0 0 0-.29-.51h-62.52m123.36 32a.33.33 0 0 0 .29-.16l18.78-31.34a.33.33 0 0 0-.28-.5h-62.53a.33.33 0 0 0-.29.16l-18.77 31.34a.33.33 0 0 0 .28.5h62.52m35.86-32a.31.31 0 0 0-.27.15l-18.78 31.38a.31.31 0 0 0 .27.47h64.47a.31.31 0 0 0 .27-.15l18.79-31.38a.31.31 0 0 0-.27-.47h-64.48m-186.76 46a.32.32 0 0 0-.27.16l-18.79 31.36a.32.32 0 0 0 .27.48h62.58a.32.32 0 0 0 .27-.16l18.76-31.36a.32.32 0 0 0-.27-.48h-62.55m123.37 32a.33.33 0 0 0 .29-.16l18.79-31.34a.33.33 0 0 0-.28-.5h-62.56a.33.33 0 0 0-.29.16l-18.77 31.34a.33.33 0 0 0 .28.5h62.54m35.84-32a.31.31 0 0 0-.27.15l-18.76 31.38a.31.31 0 0 0 .27.47h64.48a.31.31 0 0 0 .27-.15l18.79-31.38a.31.31 0 0 0-.27-.47h-64.51" stroke="#20608f"/><path stroke="#0a5177" vector-effect="non-scaling-stroke" d="M403 249.05l-33.61 56.12a.38.38 0 0 0 .33.57H403q.49 0 .49-.49l.01-56.07q0-.96-.5-.13"/><path vector-effect="non-scaling-stroke" d="M183 319.77a.33.33 0 0 0 .29-.16l18.76-31.34a.33.33 0 0 0-.28-.5h-62.56a.33.33 0 0 0-.29.16l-18.73 31.34a.33.33 0 0 0 .28.5H183m35.86-32a.34.34 0 0 0-.29.17l-18.76 31.32a.34.34 0 0 0 .29.51h62.51a.34.34 0 0 0 .29-.17l18.76-31.32a.34.34 0 0 0-.29-.51h-62.51m79.6 0a.31.31 0 0 0-.27.15L279.4 319.3a.31.31 0 0 0 .27.47h64.48a.31.31 0 0 0 .27-.15l18.77-31.38a.31.31 0 0 0-.27-.47h-64.46" stroke="#20608f"/><path vector-effect="non-scaling-stroke" d="M68.78 373.34a.34.34 0 0 0-.34-.34h-9.32a.34.34 0 0 0-.34.34v9.32a.34.34 0 0 0 .34.34h9.32a.34.34 0 0 0 .34-.34v-9.32m87.49.03a.37.37 0 0 0-.37-.37h-9.26a.37.37 0 0 0-.37.37v9.26a.37.37 0 0 0 .37.37h9.26a.37.37 0 0 0 .37-.37v-9.26" stroke="#825810"/><path stroke="#817827" vector-effect="non-scaling-stroke" d="M180.16 397.39a.39.39 0 0 0-.39-.39H35.33a.39.39 0 0 0-.39.39v81.22a.39.39 0 0 0 .39.39h144.44a.39.39 0 0 0 .39-.39v-81.22"/><path stroke="#0a5177" vector-effect="non-scaling-stroke" d="M429.33 445.36a.36.36 0 0 0-.36-.36h-85.02a.36.36 0 0 0-.36.36v9.28a.36.36 0 0 0 .36.36h85.02a.36.36 0 0 0 .36-.36v-9.28"/><path stroke="#825810" vector-effect="non-scaling-stroke" d="M204.178 457.359a.35.35 0 0 0-.349-.351l-9.32-.016a.35.35 0 0 0-.351.349l-.016 9.3a.35.35 0 0 0 .349.351l9.32.016a.35.35 0 0 0 .351-.349l.016-9.3"/><path vector-effect="non-scaling-stroke" d="M109.15 430.4q2.21-7.02 4.78-13.92c3.52-9.45-10.02-13.83-12.92-5.48q-3.92 11.28-7.84 22.58-1.22 3.52-.98 5.47c.88 6.97 8.41 5.96 13.38 5.95q.58 0 .4.55-2.54 7.62-5.25 15.19c-2.17 6.08 6.25 11.47 11.2 7.17q1.66-1.45 2.98-5.26 3.2-9.29 6.45-18.57c1.74-4.95 3.12-9.77-2.36-12.32-2.6-1.21-6.35-.72-9.42-.77q-.6-.01-.42-.59m-50.26.38a6.7 6.7 0 0 0-6.7-6.7h-.52a6.7 6.7 0 0 0-6.7 6.7v25.44a6.7 6.7 0 0 0 6.7 6.7h.52a6.7 6.7 0 0 0 6.7-6.7v-25.44" stroke="#817827"/></g><path fill="#051720" d="M99.02 147.06c-.07 4.13.74 10.83-.88 14.16-3.02 6.22-13.18 4.02-13.14-2.71q.04-5.78-.02-11.53 0-.5-.5-.57-14.15-2.01-25.53-10.59-.42-.31-.81.05-3.8 3.55-7.39 7.12c-7.4 7.37-16.97-2.82-9.73-9.97q5.01-4.95 7.13-7.07.4-.4.06-.85-8.6-11.34-10.6-25.48-.08-.53-.61-.54c-5.93-.22-17.04 2.15-17.84-6.41-.93-9.96 12.38-7.66 17.96-7.68q.41 0 .46-.41 1.96-14.25 10.64-25.69.34-.46-.07-.86-1.85-1.79-7.24-7.17c-7.04-7.01 2.44-17.22 9.84-9.86q3.63 3.62 7.38 7.13.39.35.81.04 11.38-8.6 25.56-10.58.5-.07.5-.57c0-4.49-.91-11.84 1.44-15.34 2.62-3.9 9.95-3.37 11.89 1.25 1.4 3.31.65 10.13.68 14.02a.67.66-86.5 0 0 .57.65q14.14 2 25.49 10.58.45.33.85-.05c3.81-3.65 9.57-12.03 15.52-9.36 4.71 2.12 5.91 8 2.03 11.71q-3.89 3.72-7.6 7.61-.38.4-.05.84 8.57 11.37 10.58 25.53.08.54.63.54c4.35-.01 11.72-.87 15.15 1.33 4.07 2.62 3.51 10.02-1.06 11.97-3.28 1.4-10.11.68-14.14.71q-.5.01-.57.5-2.02 14.17-10.61 25.58-.32.43.05.82c3.29 3.41 10.37 8.57 9.93 13.58-.38 4.22-5.22 7.56-9.34 5.94-3.3-1.3-7.82-6.94-10.51-9.58q-.4-.39-.85-.05-11.35 8.56-25.47 10.6-.58.08-.59.66zM132.98 92a40.98 40.98 0 0 0-81.96 0 40.98 40.98 0 1 0 81.96 0z"/><circle fill="#fdd82e" cx="92" cy="92" r="40.98"/><path fill="#051720" d="M272.42 96.75c-.66 5.92-4.35 7.04-9.9 7.03q-6.34-.02-12.8-.01-.52 0-.79.45l-18.68 31.2a.23.23 0 0 0 .2.35h62.5a.7.69 15 0 0 .6-.34l18.66-31.17q.27-.44-.25-.45-6.42-.13-12.7-.02-7.48.13-8.31-7.03.81-6.98 7.55-6.98 93.63.01 187.25.02c4.39 0 7.74 3.62 7.12 7.85q-.24 1.66-2.61 5.62-36.23 60.56-72.5 121.11-.26.42-.26.92-.03 43.49-.02 86.94 0 5.7-5.49 7.23-.47.14-.48.63-.08 7.08.04 14.15.13 7.44-7.06 8.43-7.13-.95-7.03-8.18.1-7.1.01-14.27 0-.49-.49-.49H376q-.51 0-.51.51v110.5q0 .25.26.25h21.23q.49 0 .5-.5.07-12.05-.01-23.99-.05-7.23 7.01-8.09 7.08.9 7.04 7.84-.08 12.04-.01 24.19 0 .53.53.53 10.9.05 21.73.02c6.17-.02 9.49 1.66 9.53 8.11q.05 7.8 0 15.5a.39.39 0 0 0 .39.39q9.94-.01 19.84.01c6.48.01 9.48 1.74 9.51 8.49q.03 10.18 0 20.36c-.02 5.18-1.64 9.14-7.29 9.14q-45.68 0-91.36-.01c-5.37 0-8.89-1.33-9.46-7q.9-7.01 7.56-7.01 43.15.04 86.33.01.24 0 .24-.24v-9.47q0-.28-.28-.28H314.06q-.2 0-.2.2l-.04 9.49q0 .3.29.3 9.76.02 19.67.01c5.5 0 9.26 1.07 9.85 7-.58 5.71-4.14 7-9.54 7q-12 0-24 .01c-5.44 0-10.27-1.01-10.27-7.26q.01-11.5.04-23c.01-6.37 3.95-7.76 9.73-7.75q9.84.01 19.67-.01a.31.3 0 0 0 .31-.3q.01-6.96.01-13.95c.01-6.95 1.92-9.78 8.93-9.75q11.24.05 22.48-.01.5 0 .5-.5v-9.37q0-.63-.63-.63h-97.35q-.48 0-.48.49-.09 19.02-.01 37.91c.02 6.47-1 10.62-8.27 10.61q-17.99-.03-35.99 0-.53 0-.55.53c-.25 5.79-.22 10.98-7.96 10.95q-7.82-.04-15.66.07-.51 0-.49.52c.31 5.54-.3 11.44-7.35 11.44q-78.27 0-156.53-.01c-5.41 0-9.27-1.61-9.27-7.49q0-46.84 0-93.67c.01-5.86 2.17-8.8 8.07-8.81q7.6-.01 15.2-.03.54 0 .55-.54.06-7.4.03-14.68c-.03-7 3.03-8.77 9.72-8.77q10.63.01 21.23-.01c5.57-.01 7.02 4.4 7.03 9.4q.01 7.2 0 14.38a.23.23 0 0 0 .23.23h48.98a.27.27 0 0 0 .27-.27q.03-8.21-.01-16.48c-.03-6.12 4.69-7.26 10.05-7.25q10.48.02 20.95-.02c5.35-.01 6.98 4.21 7.01 9.09q.03 7.33 0 14.63a.29.29 0 0 0 .29.3q7.07 0 14.16.01c5.68.01 9.42 1.58 9.43 7.74q.01 25.85.04 51.7.01.52.53.53 6.27.07 12.43.02c10.06-.09 11 2.45 11.03 11.91q0 .57.57.57h30a.25.25 0 0 0 .25-.25q.02-20.83 0-41.73c0-5.56 4.4-7.02 9.4-7.02q51.18-.01 102.25.01a.85.85 0 0 0 .85-.85q0-42.55-.05-85.39 0-.37-.21-.66a.27.27 0 0 0-.45.01q-3.25 5.3-6.43 10.73c-2.21 3.76-5.87 3.44-10.7 3.44q-116.67.01-233.33.01-4.73 0-6.84-1.4c-4.27-2.83-3.1-7.26-.73-11.22Q170.94 207.27 239.16 93.4q1.97-3.3 5.85-3.39 9.75-.21 19.5-.2 6.98 0 7.91 6.94zm56.58 7.01a.33.33 0 0 0-.29.16l-18.76 31.35a.33.33 0 0 0 .28.5h62.55a.33.33 0 0 0 .29-.16l18.74-31.34a.33.33 0 0 0-.28-.5l-62.53-.01zm79.61.01a.31.31 0 0 0-.27.15l-18.78 31.38a.31.31 0 0 0 .27.47h64.47a.31.31 0 0 0 .27-.15l18.81-31.38a.31.31 0 0 0-.27-.47h-64.5zm-143.01 78a.34.34 0 0 0 .29-.17l18.76-31.32a.34.34 0 0 0-.29-.51h-62.5a.34.34 0 0 0-.29.17l-18.76 31.32a.34.34 0 0 0 .29.51h62.5zm35.85-32a.33.33 0 0 0-.29.16l-18.74 31.34a.33.33 0 0 0 .28.5h62.53a.33.33 0 0 0 .29-.16l18.77-31.34a.33.33 0 0 0-.28-.5h-62.56zm125.33 32a.32.32 0 0 0 .27-.16l18.78-31.36a.32.32 0 0 0-.27-.48l-64.48-.01a.32.32 0 0 0-.27.16l-18.79 31.37a.32.32 0 0 0 .27.48h64.49zm-232.47 14a.34.34 0 0 0-.29.17l-18.74 31.32a.34.34 0 0 0 .29.51h62.5a.34.34 0 0 0 .29-.17l18.76-31.32a.34.34 0 0 0-.29-.51h-62.52zm123.36 32a.33.33 0 0 0 .29-.16l18.78-31.34a.33.33 0 0 0-.28-.5h-62.53a.33.33 0 0 0-.29.16l-18.77 31.34a.33.33 0 0 0 .28.5h62.52zm35.86-32a.31.31 0 0 0-.27.15l-18.78 31.38a.31.31 0 0 0 .27.47h64.47a.31.31 0 0 0 .27-.15l18.79-31.38a.31.31 0 0 0-.27-.47h-64.48zm-186.76 46a.32.32 0 0 0-.27.16l-18.79 31.36a.32.32 0 0 0 .27.48h62.58a.32.32 0 0 0 .27-.16l18.76-31.36a.32.32 0 0 0-.27-.48h-62.55zm123.37 32a.33.33 0 0 0 .29-.16l18.79-31.34a.33.33 0 0 0-.28-.5h-62.56a.33.33 0 0 0-.29.16l-18.77 31.34a.33.33 0 0 0 .28.5h62.54zm35.84-32a.31.31 0 0 0-.27.15l-18.76 31.38a.31.31 0 0 0 .27.47h64.48a.31.31 0 0 0 .27-.15l18.79-31.38a.31.31 0 0 0-.27-.47h-64.51zm77.02 7.28l-33.61 56.12a.38.38 0 0 0 .33.57H403q.49 0 .49-.49l.01-56.07q0-.96-.5-.13zm-220 70.72a.33.33 0 0 0 .29-.16l18.76-31.34a.33.33 0 0 0-.28-.5h-62.56a.33.33 0 0 0-.29.16l-18.73 31.34a.33.33 0 0 0 .28.5H183zm35.86-32a.34.34 0 0 0-.29.17l-18.76 31.32a.34.34 0 0 0 .29.51h62.51a.34.34 0 0 0 .29-.17l18.76-31.32a.34.34 0 0 0-.29-.51h-62.51zm79.6 0a.31.31 0 0 0-.27.15L279.4 319.3a.31.31 0 0 0 .27.47h64.48a.31.31 0 0 0 .27-.15l18.77-31.38a.31.31 0 0 0-.27-.47h-64.46zM68.78 373.34a.34.34 0 0 0-.34-.34h-9.32a.34.34 0 0 0-.34.34v9.32a.34.34 0 0 0 .34.34h9.32a.34.34 0 0 0 .34-.34v-9.32zm87.49.03a.37.37 0 0 0-.37-.37h-9.26a.37.37 0 0 0-.37.37v9.26a.37.37 0 0 0 .37.37h9.26a.37.37 0 0 0 .37-.37v-9.26zm23.89 24.02a.39.39 0 0 0-.39-.39H35.33a.39.39 0 0 0-.39.39v81.22a.39.39 0 0 0 .39.39h144.44a.39.39 0 0 0 .39-.39v-81.22zm249.17 47.97a.36.36 0 0 0-.36-.36h-85.02a.36.36 0 0 0-.36.36v9.28a.36.36 0 0 0 .36.36h85.02a.36.36 0 0 0 .36-.36v-9.28zm-225.152 11.999a.35.35 0 0 0-.349-.351l-9.32-.016a.35.35 0 0 0-.351.349l-.016 9.3a.35.35 0 0 0 .349.351l9.32.016a.35.35 0 0 0 .351-.349l.016-9.3z"/><path d="M272.42 96.75l18.53.01q.83 7.16 8.31 7.03 6.28-.11 12.7.02.52.01.25.45l-18.66 31.17a.7.69 15 0 1-.6.34h-62.5a.23.23 0 0 1-.2-.35l18.68-31.2q.27-.45.79-.45 6.46-.01 12.8.01c5.55.01 9.24-1.11 9.9-7.03zm56.58 7.01l62.53.01a.33.33 0 0 1 .28.5l-18.74 31.34a.33.33 0 0 1-.29.16h-62.55a.33.33 0 0 1-.28-.5l18.76-31.35a.33.33 0 0 1 .29-.16zm79.61.01h64.5a.31.31 0 0 1 .27.47l-18.81 31.38a.31.31 0 0 1-.27.15h-64.47a.31.31 0 0 1-.27-.47l18.78-31.38a.31.31 0 0 1 .27-.15zm-143.01 78h-62.5a.34.34 0 0 1-.29-.51l18.76-31.32a.34.34 0 0 1 .29-.17h62.5a.34.34 0 0 1 .29.51l-18.76 31.32a.34.34 0 0 1-.29.17zm35.85-32h62.56a.33.33 0 0 1 .28.5l-18.77 31.34a.33.33 0 0 1-.29.16H282.7a.33.33 0 0 1-.28-.5l18.74-31.34a.33.33 0 0 1 .29-.16zm125.33 32h-64.49a.32.32 0 0 1-.27-.48l18.79-31.37a.32.32 0 0 1 .27-.16l64.48.01a.32.32 0 0 1 .27.48l-18.78 31.36a.32.32 0 0 1-.27.16zm-232.47 14h62.52a.34.34 0 0 1 .29.51l-18.76 31.32a.34.34 0 0 1-.29.17h-62.5a.34.34 0 0 1-.29-.51l18.74-31.32a.34.34 0 0 1 .29-.17zm123.36 32h-62.52a.33.33 0 0 1-.28-.5l18.77-31.34a.33.33 0 0 1 .29-.16h62.53a.33.33 0 0 1 .28.5l-18.78 31.34a.33.33 0 0 1-.29.16zm35.86-32h64.48a.31.31 0 0 1 .27.47l-18.79 31.38a.31.31 0 0 1-.27.15h-64.47a.31.31 0 0 1-.27-.47l18.78-31.38a.31.31 0 0 1 .27-.15zm-186.76 46h62.55a.32.32 0 0 1 .27.48l-18.76 31.36a.32.32 0 0 1-.27.16h-62.58a.32.32 0 0 1-.27-.48l18.79-31.36a.32.32 0 0 1 .27-.16zm123.37 32H227.6a.33.33 0 0 1-.28-.5l18.77-31.34a.33.33 0 0 1 .29-.16h62.56a.33.33 0 0 1 .28.5l-18.79 31.34a.33.33 0 0 1-.29.16zm35.84-32h64.51a.31.31 0 0 1 .27.47l-18.79 31.38a.31.31 0 0 1-.27.15h-64.48a.31.31 0 0 1-.27-.47l18.76-31.38a.31.31 0 0 1 .27-.15z" fill="#3ba9fd"/><path fill="#0e8bce" d="M369.39 305.17L403 249.05q.5-.83.5.13l-.01 56.07q0 .49-.49.49h-33.28a.38.38 0 0 1-.33-.57z"/><path d="M183 319.77h-62.53a.33.33 0 0 1-.28-.5l18.73-31.34a.33.33 0 0 1 .29-.16h62.56a.33.33 0 0 1 .28.5l-18.76 31.34a.33.33 0 0 1-.29.16zm35.86-32h62.51a.34.34 0 0 1 .29.51L262.9 319.6a.34.34 0 0 1-.29.17H200.1a.34.34 0 0 1-.29-.51l18.76-31.32a.34.34 0 0 1 .29-.17zm79.6 0h64.46a.31.31 0 0 1 .27.47l-18.77 31.38a.31.31 0 0 1-.27.15h-64.48a.31.31 0 0 1-.27-.47l18.79-31.38a.31.31 0 0 1 .27-.15z" fill="#3ba9fd"/><path fill="#eaeaf0" d="M404.49 342.68v9.76c-6.11.6-7.01 4.45-7 10.07q.01 6.21.02 12.42c.01 5.25 1.47 8.62 6.97 9.12v14.37q-7.06.86-7.01 8.09.08 11.94.01 23.99-.01.5-.5.5h-21.23q-.26 0-.26-.25v-110.5q0-.51.51-.51h20.98q.49 0 .49.49.09 7.17-.01 14.27-.1 7.23 7.03 8.18z"/><path fill="#051720" d="M404.49 352.44c5.87.62 7 4.26 7 9.75q-.01 7.28.02 14.56.02 6.51-7.03 7.3c-5.5-.5-6.96-3.87-6.97-9.12q-.01-6.21-.02-12.42c-.01-5.62.89-9.47 7-10.07z"/><g fill="#ff9800"><rect x="58.78" y="373" width="10" height="10" rx=".34"/><rect x="146.27" y="373" width="10" height="10" rx=".37"/></g><path fill="#fdd82e" d="M180.16 478.61a.39.39 0 0 1-.39.39H35.33a.39.39 0 0 1-.39-.39v-81.22a.39.39 0 0 1 .39-.39h144.44a.39.39 0 0 1 .39.39v81.22zm-71.01-48.21q2.21-7.02 4.78-13.92c3.52-9.45-10.02-13.83-12.92-5.48q-3.92 11.28-7.84 22.58-1.22 3.52-.98 5.47c.88 6.97 8.41 5.96 13.38 5.95q.58 0 .4.55-2.54 7.62-5.25 15.19c-2.17 6.08 6.25 11.47 11.2 7.17q1.66-1.45 2.98-5.26 3.2-9.29 6.45-18.57c1.74-4.95 3.12-9.77-2.36-12.32-2.6-1.21-6.35-.72-9.42-.77q-.6-.01-.42-.59zm-50.26.38a6.7 6.7 0 0 0-6.7-6.7h-.52a6.7 6.7 0 0 0-6.7 6.7v25.44a6.7 6.7 0 0 0 6.7 6.7h.52a6.7 6.7 0 0 0 6.7-6.7v-25.44z"/><g fill="#051720"><path d="M109.57 430.99c3.07.05 6.82-.44 9.42.77 5.48 2.55 4.1 7.37 2.36 12.32q-3.25 9.28-6.45 18.57-1.32 3.81-2.98 5.26c-4.95 4.3-13.37-1.09-11.2-7.17q2.71-7.57 5.25-15.19.18-.55-.4-.55c-4.97.01-12.5 1.02-13.38-5.95q-.24-1.95.98-5.47 3.92-11.3 7.84-22.58c2.9-8.35 16.44-3.97 12.92 5.48q-2.57 6.9-4.78 13.92-.18.58.42.59z"/><rect x="44.97" y="424.08" width="13.92" height="38.84" rx="6.7"/></g><rect fill="#0e8bce" x="343.59" y="445" width="85.74" height="10" rx=".36"/><rect fill="#ff9800" x="-5.01" y="-5" transform="matrix(.999998 .001745 -.001745 .999998 199.16 462)" width="10.02" height="10" rx=".35"/><path fill="#eaeaf0" d="M364.93 485.99l-21.3.01c-.59-5.93-4.35-7-9.85-7q-9.91.01-19.67-.01-.29 0-.29-.3l.04-9.49q0-.2.2-.2h144.72q.28 0 .28.28v9.47q0 .24-.24.24-43.18.03-86.33-.01-6.66 0-7.56 7.01z"/></svg>