<svg xmlns="http://www.w3.org/2000/svg" viewBox="0 0 512 512" xmlns:v="https://vecta.io/nano"><g fill="none" stroke-width="2"><path stroke="#64787f" vector-effect="non-scaling-stroke" d="M205.45 315.44c-6.05-.39-7.63-4.05-7.82-9.77q-.47-14.45-.92-28.83a.41.4-5 0 0-.47-.39q-16 2.17-32-.08a.43.43 0 0 0-.49.41l-5.35 167.19"/><path stroke="#4d737e" vector-effect="non-scaling-stroke" d="M158.4 443.97l-.66 22.2q-.01.52.51.52h43.99q.5 0 .49-.5l-.68-22.21"/><path stroke="#64787f" vector-effect="non-scaling-stroke" d="M202.05 443.98q-1.56-49.71-3.16-99.98-.24-7.54 7.17-8.7"/><path stroke="#517317" vector-effect="non-scaling-stroke" d="M467.97 332.93q-7.65-.82-7.65-8.68 0-12.06.02-24.04 0-.34-.34-.34H354.51q-.4 0-.4.4.03 93.52.2 186.98.02 9.76 9.44 9.76 43.06 0 86.13-.03c7.87-.01 10.44-3.57 10.44-11.39q.02-62.3 0-124.59 0-7.47 7.66-8.18"/><path stroke="#29486c" vector-effect="non-scaling-stroke" d="M104.14 504.53q.87-7.52 7.61-7.52 78.98-.03 157.55-.02"/><path stroke="#033a67" vector-effect="non-scaling-stroke" d="M269.3 496.99l24.18-.03a.5.5 0 0 0 .5-.5l-.03-14.17q0-.57-.57-.57l-24.3-.02"/><path stroke="#29486c" vector-effect="non-scaling-stroke" d="M269.08 481.7l-201.99.01q-.59 0-.59.59v13.97q0 .69.7.71c6.53.12 16.12-2.1 17.11 7.55"/><path stroke="#636a6f" vector-effect="non-scaling-stroke" d="M194.96 124.22q.69.28.64-.47l-7.2-108.31a.47.46 88 0 0-.46-.44h-15.15a.76.75-88 0 0-.75.71L164.84 124q-.04.51.44.31 14.83-6.13 29.68-.09"/><path stroke="#474e54" vector-effect="non-scaling-stroke" d="M203.01 159.02a22.78 22.78 0 1 0-45.56 0 22.78 22.78 0 1 0 45.56 0"/><path vector-effect="non-scaling-stroke" d="M202.89 189.86l97.53 48a.54.53 28.1 0 0 .71-.21l7.61-13.16a.63.63 0 0 0-.19-.84l-90.12-60.34q-.57-.38-.67.3-2.27 15.93-14.92 25.67-.44.34.05.58m-142.8 47.97l97.52-47.95q.49-.24.06-.58-12.82-9.82-15-25.93a.28.28 0 0 0-.43-.19l-90.31 60.49q-.49.32-.2.83l7.56 13.09a.62.61 61.6 0 0 .8.24" stroke="#636a6f"/><path stroke="#64787f" vector-effect="non-scaling-stroke" d="M165.71 217.83l-.15 2.07q-.04.5.46.62 7.82 1.81 15.81 1.66 4.63-.08 6.26.58c4.84 1.98 5.61 9.77 1.45 12.69-4.88 3.44-18.44 1.42-24.11.28a.3.29-82.8 0 0-.36.28l-.8 24.74q-.02.5.48.58 15.47 2.36 30.95.1.48-.07.46-.55l-1.39-43.17"/><path stroke="#4d737e" vector-effect="non-scaling-stroke" d="M194.77 217.71l-.47-14.84q-.01-.51-.47-.74-4.98-2.5-10-4.9c-2.06-.98-5.87-.64-7.91.36q-4.66 2.29-9.33 4.62-.45.23-.46.72l-.42 14.9"/><path stroke="#b1ebfd" vector-effect="non-scaling-stroke" d="M194.77 217.71q-14.5 3.68-29.06.12"/><path vector-effect="non-scaling-stroke" d="M417.18 229.12h-19.86a2.81 2.81 0 0 0-2.81 2.81v11.81a.77.76 0 0 0 .77.76h23.94a.77.76 0 0 0 .77-.76v-11.81a2.81 2.81 0 0 0-2.81-2.81m-62.51 55.75h105.14a.58.58 0 0 0 .58-.58v-15.56a9.67 9.3 0 0 0-9.67-9.3h-86.96a9.67 9.3 0 0 0-9.67 9.3v15.56a.58.58 0 0 0 .58.58" stroke="#636a6f"/><path stroke="#474e54" vector-effect="non-scaling-stroke" d="M187.71 159.02a7.48 7.48 0 1 0-14.96 0 7.48 7.48 0 1 0 14.96 0"/><path stroke="#b1ebfd" vector-effect="non-scaling-stroke" d="M202.05 443.98l-43.65-.01"/><path stroke="#517317" vector-effect="non-scaling-stroke" d="M389.24 420.33q.23 19.44.05 32.67c-.12 8.23 9.78 11.85 14.03 4.77q20.27-33.77 40.53-67.54 1.87-3.12 2.05-4.81c.45-4.07-2.78-8.37-6.91-8.36q-6.57 0-13.28-.04-.55-.01-.55-.55 0-16.24.23-32.46.1-6.36-5.15-8.21c-5.32-1.87-7.98 1.5-10.63 5.93q-20.03 33.4-39.88 66.9c-2.72 4.59.24 11.15 5.52 11.14q6.72-.02 13.45.02.54 0 .54.54"/><path stroke="#80692e" vector-effect="non-scaling-stroke" d="M389.97 404.75c4.37.06 13.84-1.04 14.1 6.51q.26 7.58.26 14.85a.22.22 0 0 0 .41.12l20.24-33.74a.31.31 0 0 0-.27-.47c-5.76.13-14.6.85-14.55-7.52q.04-7.04.04-13.65 0-.96-.49-.14l-20.07 33.45q-.34.58.33.59"/><path stroke="#2c81d3" vector-effect="non-scaling-stroke" d="M269.08 481.7l.22 15.29"/></g><path d="M171.35 0h17.75q13.41 2.32 14.32 16.01 4.05 60.31 8.09 120.63c.16 2.32 2.34 5.55 4.26 6.83q13.48 9.04 26.91 18.01.63.42.65-.33.52-17.81-8.37-33.39c-1.25-2.19-3.08-4.88-3.37-7.2-.66-5.26 4.76-9.69 9.78-7.91 2.85 1.01 4.17 3.22 5.7 5.8q14.37 24.3 10.44 52.5a.72.72 0 0 0 .32.7l21.88 14.65a.34.34 0 0 0 .52-.2c10.45-40.25-3.28-82.47-35.98-108.56-2.91-2.32-4.75-4.42-4.19-8.04.85-5.44 7.41-8.38 11.9-4.95 39.97 30.42 55.9 82.33 41.38 130.36q-.14.46.26.72 9.63 6.37 19.3 12.88 6.62 4.47 8.61 7.62c4.23 6.7 2.06 12.79-1.75 19.32-4.86 8.35-8.47 17.92-19.81 17.36q-3.42-.17-9.01-2.92-40.23-19.76-81-39.83a.25.24 12.7 0 0-.36.22l1.51 47.18a.36.35-10.5 0 0 .47.32c3.44-1.16 9.03-3.97 12.28-3.76 4.4.29 7.71 4.89 6.65 9.12-.87 3.47-3.08 4.76-6.29 6.01q-5.9 2.29-12.09 4.1-.49.15-.48.66.47 16.1 1.02 32.08.29 8.24-7.2 9.45c-6.05-.39-7.63-4.05-7.82-9.77q-.47-14.45-.92-28.83a.41.4-5 0 0-.47-.39q-16 2.17-32-.08a.43.43 0 0 0-.49.41l-5.35 167.19-.66 22.2q-.01.52.51.52h43.99q.5 0 .49-.5l-.68-22.21q-1.56-49.71-3.16-99.98-.24-7.54 7.17-8.7c6.06.41 7.63 4.06 7.83 9.79q.38 11.01.69 21.92a.46.45-.6 0 0 .46.44q27.33-.01 54.71.29c10.84.11 18.67 8.55 18.82 19.26q.14 10.47.23 20.38a4.43 4.43 0 0 0 4.43 4.4h45.52a.39.38 90 0 0 .38-.39q.03-71.77.19-143.64c.03-9.83 6.13-18.44 15.17-21.78 6.54-2.42 16.8-1.53 24.62-1.48a.41.41 0 0 0 .42-.41c.01-7.94-1.46-16.44 3.93-23.14q5.74-7.15 15.05-7.03 8.26.11 16.53.24 5.98.09 9.21 1.47c12.43 5.31 10.63 16.91 10.74 28.35q0 .53.53.52c7.38-.04 17.33-.92 23.7 1.2 7.15 2.38 12.97 8.38 15.12 15.59q.99 3.34 1 11.03.03 25.85.01 51.69 0 7.91-7.38 8.93-7.65-.82-7.65-8.68 0-12.06.02-24.04 0-.34-.34-.34H354.51q-.4 0-.4.4.03 93.52.2 186.98.02 9.76 9.44 9.76 43.06 0 86.13-.03c7.87-.01 10.44-3.57 10.44-11.39q.02-62.3 0-124.59 0-7.47 7.66-8.18c6.14.7 7.38 4.51 7.38 10.3q-.02 61.69.01 123.38c0 14.03-7.91 23.31-21.65 25.5h-93.24q-15.4-2.67-20.02-16.15-1.3-3.78-1.3-10.35 0-28.7 0-58.21a.51.51 0 0 0-.51-.51q-21.38.01-42.85-.01c-9.65 0-17.36-3.41-20.76-12.79q-1.33-3.66-1.3-11.11.04-8.1-.01-15.91a4.5 4.5 0 0 0-4.5-4.48h-53.67a.45.45 0 0 0-.45.46l2.67 83.3a.46.46 0 0 0 .46.45q36.1 0 72.02 0 6.12 0 9.28 1.36c10.64 4.57 9.4 14.36 9.42 24.37q.01 6.83-1.29 9.99-3.23 7.8-12.68 9.59H110.45q-5.71-1.61-6.31-7.47.87-7.52 7.61-7.52 78.98-.03 157.55-.02l24.18-.03a.5.5 0 0 0 .5-.5l-.03-14.17q0-.57-.57-.57l-24.3-.02-201.99.01q-.59 0-.59.59v13.97q0 .69.7.71c6.53.12 16.12-2.1 17.11 7.55q-.71 6.12-6.57 7.47H65.21q-9.14-1.9-12.36-9.45-1.35-3.17-1.34-9.77c.02-9.93-1.4-20.06 9.4-24.72q3.15-1.37 9.39-1.36 35.88 0 71.91-.01a.48.47-88.7 0 0 .47-.46l6.16-192.48q.02-.54-.51-.69-29.49-8.26-51.35-29.79-2.14-2.1-4.31-4.16-.38-.36-.85-.13-10.4 5.05-20.72 10.17c-7.4 3.67-13.4 5.73-20.14.94q-2.92-2.07-6.4-8.04c-5.18-8.86-11.8-17.13-4.98-26.98 1.87-2.7 4.71-4.31 7.53-6.21q48.93-32.83 97.91-65.57c2.23-1.49 3.79-4.86 3.99-7.8q1.11-16.08 2.16-32.11a.27.27 0 0 0-.4-.25q-15.59 8.38-24.65 23.7c-1.49 2.5-3.12 5.82-5.45 7.3-4.75 3.02-11.8-.87-11.36-6.6q.16-2.13 2.19-5.77 13.78-24.82 40.39-35.63.45-.18.48-.67l1.74-26.19q.03-.49-.44-.36c-39.77 10.87-69.41 43.64-75.9 84.64q-.69 4.36-1.96 6.08c-4.37 5.91-14.3 1.75-13.32-5.39 6.89-50.05 42.92-89.67 92.15-101.02q.52-.12.56-.64.77-10.36 1.4-20.67.63-10.2 2.3-13.53 3.44-6.85 12.45-8.38zm23.61 124.22q.69.28.64-.47l-7.2-108.31a.47.46 88 0 0-.46-.44h-15.15a.76.75-88 0 0-.75.71L164.84 124q-.04.51.44.31 14.83-6.13 29.68-.09zm8.05 34.8a22.78 22.78 0 1 0-45.56 0 22.78 22.78 0 1 0 45.56 0zm-.12 30.84l97.53 48a.54.53 28.1 0 0 .71-.21l7.61-13.16a.63.63 0 0 0-.19-.84l-90.12-60.34q-.57-.38-.67.3-2.27 15.93-14.92 25.67-.44.34.05.58zm-142.8 47.97l97.52-47.95q.49-.24.06-.58-12.82-9.82-15-25.93a.28.28 0 0 0-.43-.19l-90.31 60.49q-.49.32-.2.83l7.56 13.09a.62.61 61.6 0 0 .8.24zm105.62-20l-.15 2.07q-.04.5.46.62 7.82 1.81 15.81 1.66 4.63-.08 6.26.58c4.84 1.98 5.61 9.77 1.45 12.69-4.88 3.44-18.44 1.42-24.11.28a.3.29-82.8 0 0-.36.28l-.8 24.74q-.02.5.48.58 15.47 2.36 30.95.1.48-.07.46-.55l-1.39-43.17-.47-14.84q-.01-.51-.47-.74-4.98-2.5-10-4.9c-2.06-.98-5.87-.64-7.91.36q-4.66 2.29-9.33 4.62-.45.23-.46.72l-.42 14.9zm-19.33 11.44q-8.18-3.81-15.08-9.27a.75.75 0 0 0-.8-.09l-23.52 11.57a.42.42 0 0 0-.11.68q17.93 17.76 42.01 25.45a.38.38 0 0 0 .5-.35l.81-25.5q.01-.43-.37-.66-1.71-1.02-3.44-1.83zm270.8-.15h-19.86a2.81 2.81 0 0 0-2.81 2.81v11.81a.77.76 0 0 0 .77.76h23.94a.77.76 0 0 0 .77-.76v-11.81a2.81 2.81 0 0 0-2.81-2.81zm-62.51 55.75h105.14a.58.58 0 0 0 .58-.58v-15.56a9.67 9.3 0 0 0-9.67-9.3h-86.96a9.67 9.3 0 0 0-9.67 9.3v15.56a.58.58 0 0 0 .58.58z"/><path fill="#c5d3dd" d="M194.96 124.22q-14.85-6.04-29.68.09-.48.2-.44-.31l7.2-108.29a.76.75-88 0 1 .75-.71h15.15a.47.46 88 0 1 .46.44l7.2 108.31q.05.75-.64.47z"/><path fill="#8d9ca8" d="M203.01 159.02a22.78 22.78 0 1 1-45.56 0 22.78 22.78 0 1 1 45.56 0zm-15.3 0a7.48 7.48 0 1 0-14.96 0 7.48 7.48 0 1 0 14.96 0z"/><circle cx="180.23" cy="159.02" r="7.48"/><path d="M300.42 237.86l-97.53-48q-.49-.24-.05-.58 12.65-9.74 14.92-25.67.1-.68.67-.3l90.12 60.34a.63.63 0 0 1 .19.84l-7.61 13.16a.54.53 28.1 0 1-.71.21zm-142.81-47.98l-97.52 47.95a.62.61 61.6 0 1-.8-.24l-7.56-13.09q-.29-.51.2-.83l90.31-60.49a.28.28 0 0 1 .43.19q2.18 16.11 15 25.93.43.34-.06.58z" fill="#c5d3dd"/><path fill="#99e6fc" d="M194.77 217.71q-14.5 3.68-29.06.12l.42-14.9q.01-.49.46-.72 4.67-2.33 9.33-4.62c2.04-1 5.85-1.34 7.91-.36q5.02 2.4 10 4.9.46.23.47.74l.47 14.84z"/><path fill="#c8effe" d="M194.77 217.71l1.39 43.17q.02.48-.46.55-15.48 2.26-30.95-.1-.5-.08-.48-.58l.8-24.74a.3.29-82.8 0 1 .36-.28c5.67 1.14 19.23 3.16 24.11-.28 4.16-2.92 3.39-10.71-1.45-12.69q-1.63-.66-6.26-.58-7.99.15-15.81-1.66-.5-.12-.46-.62l.15-2.07q14.56 3.56 29.06-.12z"/><path d="M417.18 229.12a2.81 2.81 0 0 1 2.81 2.81v11.81a.77.76 0 0 1-.77.76h-23.94a.77.76 0 0 1-.77-.76v-11.81a2.81 2.81 0 0 1 2.81-2.81h19.86zm-62.51 55.75a.58.58 0 0 1-.58-.58v-15.56a9.67 9.3 0 0 1 9.67-9.3h86.96a9.67 9.3 0 0 1 9.67 9.3v15.56a.58.58 0 0 1-.58.58H354.67z" fill="#c5d3dd"/><path fill="#c8effe" d="M205.45 315.44l.61 19.86q-7.41 1.16-7.17 8.7 1.6 50.27 3.16 99.98l-43.65-.01 5.35-167.19a.43.43 0 0 1 .49-.41q16 2.25 32 .08a.41.4-5 0 1 .47.39q.45 14.38.92 28.83c.19 5.72 1.77 9.38 7.82 9.77z"/><path fill="#a2e62e" d="M467.97 332.93l.01 19.89q-7.66.71-7.66 8.18.02 62.29 0 124.59c0 7.82-2.57 11.38-10.44 11.39q-43.07.03-86.13.03-9.42 0-9.44-9.76-.17-93.46-.2-186.98 0-.4.4-.4H460q.34 0 .34.34-.02 11.98-.02 24.04 0 7.86 7.65 8.68zm-78.73 87.4q.23 19.44.05 32.67c-.12 8.23 9.78 11.85 14.03 4.77q20.27-33.77 40.53-67.54 1.87-3.12 2.05-4.81c.45-4.07-2.78-8.37-6.91-8.36q-6.57 0-13.28-.04-.55-.01-.55-.55 0-16.24.23-32.46.1-6.36-5.15-8.21c-5.32-1.87-7.98 1.5-10.63 5.93q-20.03 33.4-39.88 66.9c-2.72 4.59.24 11.15 5.52 11.14q6.72-.02 13.45.02.54 0 .54.54z"/><path d="M388.7 419.79q-6.73-.04-13.45-.02c-5.28.01-8.24-6.55-5.52-11.14q19.85-33.5 39.88-66.9c2.65-4.43 5.31-7.8 10.63-5.93q5.25 1.85 5.15 8.21-.23 16.22-.23 32.46 0 .54.55.55 6.71.04 13.28.04c4.13-.01 7.36 4.29 6.91 8.36q-.18 1.69-2.05 4.81-20.26 33.77-40.53 67.54c-4.25 7.08-14.15 3.46-14.03-4.77q.18-13.23-.05-32.67 0-.54-.54-.54zm1.27-15.04c4.37.06 13.84-1.04 14.1 6.51q.26 7.58.26 14.85a.22.22 0 0 0 .41.12l20.24-33.74a.31.31 0 0 0-.27-.47c-5.76.13-14.6.85-14.55-7.52q.04-7.04.04-13.65 0-.96-.49-.14l-20.07 33.45q-.34.58.33.59z"/><path fill="#ffd15b" d="M404.07 411.26c-.26-7.55-9.73-6.45-14.1-6.51q-.67-.01-.33-.59l20.07-33.45q.49-.82.49.14 0 6.61-.04 13.65c-.05 8.37 8.79 7.65 14.55 7.52a.31.31 0 0 1 .27.47l-20.24 33.74a.22.22 0 0 1-.41-.12q0-7.27-.26-14.85z"/><path fill="#99e6fc" d="M202.05 443.98l.68 22.21q.01.5-.49.5h-43.99q-.52 0-.51-.52l.66-22.2 43.65.01z"/><path fill="#528fd8" d="M269.08 481.7l.22 15.29q-78.57-.01-157.55.02-6.74 0-7.61 7.52H84.31c-.99-9.65-10.58-7.43-17.11-7.55q-.7-.02-.7-.71V482.3q0-.59.59-.59l201.99-.01z"/><path fill="#0573ce" d="M269.08 481.7l24.3.02q.57 0 .57.57l.03 14.17a.5.5 0 0 1-.5.5l-24.18.03-.22-15.29z"/></svg>